<svg width="39" height="38" viewBox="0 0 39 38" fill="none" xmlns="http://www.w3.org/2000/svg">
<g clip-path="url(#clip0_3986_2626)">
<path d="M37.5859 24.1482L24.8983 27.847C24.7155 27.9003 24.6279 28.1081 24.7173 28.2762L26.0486 30.779C26.1306 30.9331 26.0798 31.1244 25.9322 31.2176L16.5504 37.141C16.4072 37.2314 16.5004 37.4528 16.6651 37.4135L33.6073 33.3742C33.8089 33.3262 33.9023 33.0931 33.7897 32.9192L31.8983 29.9967C31.809 29.8589 31.8335 29.6765 31.9559 29.567L37.7278 24.4037C37.8467 24.2974 37.7391 24.1035 37.5859 24.1482Z" fill="#FFD15B"/>
<path d="M37.7278 24.4037C37.8467 24.2974 37.7391 24.1035 37.5859 24.1482L34.9217 24.9249L29.7324 29.567C29.6099 29.6765 29.5855 29.8589 29.6748 29.9967L31.5662 32.9192C31.6788 33.0931 31.5854 33.3261 31.3838 33.3742L17.1364 36.771L16.5504 37.141C16.4072 37.2314 16.5004 37.4528 16.6651 37.4135L33.6073 33.3742C33.8089 33.3262 33.9023 33.0931 33.7897 32.9192L31.8983 29.9967C31.809 29.8589 31.8335 29.6765 31.9559 29.567L37.7278 24.4037Z" fill="#FDB441"/>
<path d="M29.7565 0.582031H15.9447C15.6573 0.582031 15.4062 0.776588 15.334 1.05527L11.2549 16.8005C11.1514 17.2 11.377 17.611 11.7692 17.7373L18.0488 19.7593C18.2574 19.8264 18.3751 20.0473 18.3149 20.2584L13.5353 36.9947C13.4375 37.3372 13.8752 37.5713 14.1048 37.2991L31.9685 16.1175C32.2882 15.7384 32.1138 15.1553 31.6389 15.0147L24.0696 12.7738C23.7122 12.6679 23.5546 12.2491 23.7535 11.9332L30.2901 1.55133C30.5551 1.13042 30.2532 0.582031 29.7565 0.582031Z" fill="#FFD15B"/>
<path d="M31.6384 15.0146L24.0693 12.7738C23.7118 12.6679 23.5543 12.2491 23.7532 11.9332L30.2898 1.55133C30.5548 1.13042 30.2529 0.582031 29.7562 0.582031H27.5327C28.0294 0.582031 28.3313 1.13042 28.0663 1.55133L21.5297 11.9332C21.3308 12.2491 21.4883 12.6679 21.8458 12.7738L29.4149 15.0147C29.8899 15.1553 30.0642 15.7384 29.7445 16.1175L14.2503 34.4895L13.5348 36.9947C13.437 37.3372 13.8747 37.5713 14.1044 37.2991L31.968 16.1175C32.2877 15.7384 32.1134 15.1553 31.6384 15.0146Z" fill="#FDB441"/>
<path d="M0.891689 14.6832L2.77945 27.7636C2.80665 27.952 3.00009 28.0678 3.17901 28.0028L5.84352 27.0347C6.00761 26.9751 6.18987 27.0521 6.26154 27.2113L10.8144 37.3295C10.8839 37.4839 11.1161 37.4226 11.1003 37.2539L9.47058 19.9132C9.45116 19.7069 9.23348 19.5819 9.04552 19.669L5.88725 21.1331C5.7382 21.2022 5.56113 21.1525 5.46982 21.016L1.16466 14.5785C1.07587 14.4459 0.868935 14.5253 0.891689 14.6832Z" fill="#FFD15B"/>
<path d="M1.40925 18.2692L3.24624 21.0159C3.33755 21.1525 3.57517 21.4088 4.22347 21.2903L5.46975 21.0159L1.16459 14.5785C1.07587 14.4459 0.868935 14.5253 0.891689 14.6832L1.40925 18.2692Z" fill="#FDB441"/>
<path d="M11.1002 37.2539L9.47051 19.9132C9.45109 19.7069 9.23341 19.5818 9.04545 19.669L7.30014 20.4781L9.54715 34.5131L10.8144 37.3295C10.8838 37.4839 11.1161 37.4225 11.1002 37.2539Z" fill="#FDB441"/>
<path d="M4.03867 27.2111C3.96708 27.0519 3.78475 26.9749 3.62065 27.0345L2.72198 27.361L2.78002 27.7634C2.80722 27.9518 3.00066 28.0676 3.17958 28.0026L4.22397 27.6231L4.03867 27.2111Z" fill="#FDB441"/>
<path d="M17.7772 0.582031H15.9447C15.6573 0.582031 15.4062 0.776588 15.334 1.05527L11.2549 16.8005C11.1514 17.2 11.377 17.611 11.7692 17.7373L18.0488 19.7593C18.2574 19.8264 18.3751 20.0473 18.3149 20.2584L13.5353 36.9947C13.4375 37.3372 13.8752 37.5713 14.1048 37.2991L31.9685 16.1175C32.2882 15.7384 32.1138 15.1553 31.6389 15.0147L24.0697 12.7738C23.7122 12.6679 23.5547 12.2491 23.7536 11.9332L30.2902 1.55133C30.5552 1.13042 30.2533 0.582031 29.7566 0.582031H20.5442" stroke="#1C2042" stroke-miterlimit="10" stroke-linecap="round" stroke-linejoin="round"/>
<path d="M31.5146 33.8732L33.6073 33.3742C33.8089 33.3262 33.9023 33.0931 33.7897 32.9192L31.8983 29.9967C31.809 29.8589 31.8335 29.6765 31.9559 29.567L37.7278 24.4037C37.8467 24.2974 37.7391 24.1035 37.5859 24.1482L24.8983 27.847C24.7155 27.9003 24.6279 28.1081 24.7173 28.2762L26.0486 30.779C26.1306 30.9331 26.0798 31.1244 25.9322 31.2176L16.5504 37.141C16.4072 37.2314 16.5004 37.4528 16.6651 37.4135L29.046 34.4617" stroke="#1C2042" stroke-miterlimit="10" stroke-linecap="round" stroke-linejoin="round"/>
<path d="M0.891689 14.6832L2.77945 27.7636C2.80665 27.952 3.00009 28.0678 3.17901 28.0028L5.84352 27.0347C6.00761 26.9751 6.18987 27.0521 6.26154 27.2113L10.8144 37.3295C10.8839 37.4839 11.1161 37.4226 11.1003 37.2539L9.47058 19.9132C9.45116 19.7069 9.23348 19.5819 9.04552 19.669L5.88725 21.1331C5.7382 21.2022 5.56113 21.1525 5.46982 21.016L1.16466 14.5785C1.07587 14.4459 0.868935 14.5253 0.891689 14.6832Z" stroke="#1C2042" stroke-miterlimit="10" stroke-linecap="round" stroke-linejoin="round"/>
</g>
<defs>
<clipPath id="clip0_3986_2626">
<rect width="38" height="38" fill="white" transform="translate(0.333313)"/>
</clipPath>
</defs>
</svg>
