<svg width="51" height="43" viewBox="0 0 51 43" fill="none" xmlns="http://www.w3.org/2000/svg">
<path d="M44.0531 26.0752C45.7614 22.8983 46.3333 19.9048 46.3333 16.6097C46.3334 15.2726 45.3136 14.1773 44.0179 14.0742C43.3289 14.0195 42.6888 14.2484 42.2033 14.6602L28.5869 24.4092C26.8678 26.1481 25.6114 28.3297 25.4967 30.625C25.4722 28.2185 24.1014 26.2169 22.3144 24.4092L8.7954 14.6583C8.31015 14.2474 7.65237 14.0212 6.96424 14.0759C5.68775 14.1982 4.66654 15.2865 4.66663 16.6097C4.66663 19.9048 5.23864 22.8983 6.94681 26.0752C5.44681 26.8471 5.11029 28.9064 6.32206 30.1322L9.97967 33.8321C11.2719 35.1393 12.8052 36.0067 14.3413 36.4949C14.5817 36.5713 14.8169 36.6613 15.0467 36.7627V42.9662C16.2646 42.9662 24.4829 42.9662 25.4996 42.9662C26.7175 42.9662 34.9505 42.9662 35.9672 42.9662V36.7551C37.06 36.3326 39.04 35.8351 41.0202 33.8321C44.9459 29.861 44.9878 29.921 45.2422 29.2611C45.6984 28.0793 45.2256 26.6786 44.0531 26.0752Z" fill="#FFC98C"/>
<path d="M10.1821 26.0898C9.31094 25.2013 7.94333 25.1134 6.97483 25.8447C6.97491 25.8447 6.97508 25.8447 6.97483 25.8447C6.95995 25.856 6.87429 25.9242 6.88374 25.9168C6.61681 26.1404 6.40003 26.4031 6.23792 26.7326C6.62446 27.3381 7.24201 27.7407 7.93667 27.8454C8.29921 27.9 8.6356 28.0699 8.89481 28.3343L11.1526 30.6372C11.7196 31.2156 12.4773 31.9547 13.3135 31.1019C13.5869 30.823 13.8349 30.5702 14.2047 30.1928L13.3327 29.3034L10.1821 26.0898Z" fill="#CE795F"/>
<path d="M43.7074 25.6073C45.3705 22.477 45.9282 19.5252 45.9282 16.277C45.9283 15.3462 45.4323 14.5346 44.6956 14.0997C43.937 14.5445 43.462 15.3656 43.4619 16.2771C43.462 20.3994 42.4044 22.6127 41.7725 23.935C41.4854 24.536 41.2779 24.9703 41.2386 25.4011C41.229 25.507 41.2468 25.6114 41.2867 25.7063C42.0223 25.2417 42.945 25.209 43.7074 25.6073Z" fill="#CE795F"/>
<path d="M25.4993 30.3126C25.5032 28.2955 24.6268 26.6266 23.4721 25.1616H20.1359C21.6401 26.7037 22.9563 28.2314 23.0278 30.1431L23.0281 30.4501C23.0288 30.4304 23.0287 30.4109 23.0291 30.3912C23.0335 32.1199 23.0331 42.2601 23.0331 42.3373H25.4994C25.4994 34.8049 25.5007 37.57 25.4937 30.3146L25.4993 30.3126Z" fill="#CE795F"/>
<path d="M42.8343 27.3486C42.4987 27.8409 42.1364 28.3134 41.7208 28.7375C41.4761 28.9872 41.1916 29.2755 40.8778 29.5934C40.3769 30.1012 39.7535 30.7328 38.9747 31.5273C37.7908 32.7348 36.8139 33.1386 35.0295 33.8082C33.9894 34.1985 33.2975 35.2088 33.2975 36.3393V42.3374H35.7637V36.1961C36.8353 35.7783 38.7769 35.2864 40.7186 33.3059C44.5681 29.3795 44.6092 29.4388 44.8587 28.7864C45.1809 27.9443 45.0302 26.99 44.4906 26.2991C43.8307 26.4014 43.2255 26.7747 42.8343 27.3486Z" fill="#CE795F"/>
<path d="M41.2499 5.67752L33.3457 3.41696C33.1483 3.3605 32.9499 3.33258 32.7547 3.33069V2.9857C32.7547 1.59426 31.6978 0.466248 30.3942 0.466248H20.6058C19.3022 0.466248 18.2453 1.59426 18.2453 2.9857V3.33069C18.05 3.33258 17.8517 3.3605 17.6543 3.41696L9.75012 5.67752C8.49085 6.03767 7.7436 7.41918 8.08103 8.76325L12.3576 25.7983C12.695 27.1423 13.9893 27.9399 15.2485 27.5798L19.6093 26.3326C19.9121 26.4834 20.2496 26.5681 20.6058 26.5681H30.3942C30.7504 26.5681 31.0879 26.4834 31.3907 26.3326L35.7515 27.5798C37.0107 27.9399 38.3051 27.1423 38.6424 25.7983L42.919 8.76316C43.2564 7.41909 42.5091 6.03767 41.2499 5.67752Z" fill="#FFF9EB"/>
<path d="M37.7091 13.8738C37.1815 12.8921 36.102 12.4003 35.0523 12.5477L35.5417 12.0153C35.8698 11.6584 35.6947 11.092 35.2179 10.9685L34.1395 10.6887C33.6628 10.5651 33.2185 10.9709 33.3184 11.4387L33.4689 12.144C32.8711 11.6813 32.0868 11.5005 31.3334 11.6546V18.4121C31.9163 19.1712 33.0005 19.398 33.866 18.9048L36.6401 17.3241C37.867 16.625 38.3666 15.097 37.7091 13.8738Z" fill="#6C7A88"/>
<path d="M37.7091 13.6156C37.3997 13.0119 36.9004 12.5853 36.3287 12.3662C36.2053 13.1693 35.7327 13.9153 35.0012 14.3524L32.2271 16.0102C31.9441 16.1794 31.6378 16.2658 31.3334 16.2801V18.3752C31.9163 19.1714 33.0005 19.4092 33.866 18.892L36.6401 17.2342C37.867 16.5011 38.3666 14.8986 37.7091 13.6156Z" fill="#4D5967"/>
<path d="M16.2901 12.5312C15.8349 12.2105 15.1821 12.3756 14.9577 12.8684L13.0716 17.0111C12.9109 17.3641 13.0275 17.7751 13.3535 18.0048L17.1803 20.7018C17.4286 20.8769 17.7356 20.9063 18 20.8177V13.7364L16.2901 12.5312Z" fill="#C5324F"/>
<path d="M42.6751 6.36157C41.8649 6.59401 41.1922 7.24336 40.9585 8.13261L36.5911 24.7585C34.2623 24.1221 33.5618 23.9307 32.9299 23.7579C32.9304 23.6551 32.9302 3.22733 32.9302 3.12872C32.9302 2.19569 32.422 1.38375 31.6727 0.964905C30.9492 1.40337 30.464 2.2081 30.464 3.1288V23.084V23.6956C30.0538 23.6956 21.1384 23.6956 20.7337 23.6956C19.8314 23.6956 19.0427 24.19 18.6128 24.9277C18.6206 24.9422 18.6203 24.9433 18.6123 24.9284C18.6124 24.9282 18.6126 24.9279 18.6128 24.9277C18.426 24.58 18.3185 24.1818 18.3164 23.7579L14.6084 24.7714C13.7365 25.0097 13.1 25.6959 12.8721 26.5223C13.4627 27.1522 14.3631 27.4427 15.2467 27.2013L19.713 25.9805C19.5675 25.9112 20.088 26.211 20.7337 26.211C31.59 26.211 31.0727 26.2825 31.6859 26.0222L35.9997 27.2013C37.2894 27.5538 38.6151 26.773 38.9606 25.4575L43.3408 8.78373C43.5775 7.8824 43.2927 6.96396 42.6751 6.36157Z" fill="#D3CDBF"/>
<path d="M18.3944 24.9778C18.4146 25.0134 18.4351 25.0489 18.4571 25.0834C18.4352 25.0489 18.4146 25.0133 18.3944 24.9778Z" fill="#D3CDBF"/>
<path d="M19.1919 25.8261C19.2248 25.8474 19.2582 25.8679 19.2921 25.8876C19.2582 25.8679 19.2247 25.8474 19.1919 25.8261Z" fill="#D3CDBF"/>
<path d="M18.3718 24.9393C18.3698 24.9356 18.3681 24.9316 18.3661 24.9279C18.3659 24.9281 18.3658 24.9284 18.3656 24.9286C18.3676 24.9322 18.3699 24.9357 18.3718 24.9393Z" fill="#D3CDBF"/>
<path d="M18.7667 25.4761C18.7408 25.4492 18.7158 25.4216 18.691 25.3936C18.7157 25.4216 18.7407 25.4492 18.7667 25.4761Z" fill="#D3CDBF"/>
<path d="M19.0562 25.7311C19.0869 25.7541 19.1181 25.7764 19.1499 25.7981C19.1181 25.7765 19.0868 25.7541 19.0562 25.7311Z" fill="#D3CDBF"/>
<path d="M29.0254 11.4383C28.0752 10.4305 26.4774 10.4094 25.5 11.3749C24.5227 10.4094 22.9248 10.4305 21.9747 11.4383C21.0696 12.3984 21.1392 13.9097 22.0782 14.8374L24.2013 16.9348C24.9186 17.6434 26.0816 17.6434 26.7989 16.9348L28.922 14.8374C29.8609 13.9097 29.9304 12.3984 29.0254 11.4383Z" fill="#FF5368"/>
<path d="M29.0904 11.4274C28.7077 10.9749 28.2081 10.7216 27.6942 10.6663C27.7666 11.395 27.5414 12.1568 27.0385 12.7108L25.1307 14.8121C24.55 15.4517 23.6451 15.513 23 14.9999L24.7558 16.9339C25.4003 17.6437 26.4453 17.6437 27.0897 16.9339L28.9975 14.8326C29.8412 13.9033 29.9036 12.3892 29.0904 11.4274Z" fill="#C5324F"/>
<path d="M44.4868 25.7557C44.4295 25.7003 44.3704 25.6473 44.3097 25.597C45.7065 22.8003 46.3333 19.9828 46.3333 16.5459C46.3334 14.9325 45.0991 13.5698 43.5233 13.4435C43.5231 13.4435 43.5227 13.4435 43.5225 13.4435C43.2243 13.4195 42.9292 13.4396 42.6444 13.5012L43.7511 9.28923C43.8186 9.03025 43.8537 8.76296 43.8537 8.49485C43.8537 7.83253 43.6372 7.17585 43.2434 6.64543C42.8373 6.09924 42.2782 5.71583 41.6263 5.53653L33.6127 3.34662C33.5614 3.33259 33.5098 3.31997 33.458 3.30868C33.3466 1.72224 32.0455 0.466248 30.4622 0.466248H20.5377C18.8815 0.466248 17.5341 1.84061 17.5341 3.5299V12.7397L16.833 12.206C16.4759 11.9344 16.0242 11.846 15.594 11.9635C15.1637 12.0811 14.816 12.3881 14.6399 12.8056L12.8459 17.0614C12.5804 17.6911 12.7712 18.4171 13.3097 18.8271L16.9496 21.5978C17.1249 21.7312 17.3252 21.8197 17.5341 21.8614V23.9388C17.5341 24.6523 17.7808 25.3312 18.2072 25.8682L14.9482 26.759C14.796 26.7996 14.6406 26.8212 14.4851 26.8212C13.6795 26.8203 12.9715 26.2659 12.764 25.4724L8.42802 8.96708C8.38733 8.81185 8.36698 8.65248 8.36698 8.49476C8.36698 7.67299 8.9106 6.95082 9.6886 6.73998L15.9305 5.03325C16.0883 4.99009 16.2194 4.88716 16.3016 4.74356C16.3829 4.59921 16.4041 4.43145 16.3626 4.27133C16.291 3.99981 16.0485 3.80972 15.7734 3.80972C15.7205 3.80972 15.6676 3.81636 15.6163 3.83047C15.6155 3.83047 15.6155 3.83047 15.6147 3.83047L9.37284 5.53719C8.72099 5.71566 8.16191 6.09916 7.75663 6.64535C7.36275 7.17585 7.14628 7.83244 7.14628 8.49476C7.14628 8.76205 7.18127 9.02933 7.24963 9.28915L8.35575 13.5005C8.05505 13.4356 7.74288 13.417 7.42729 13.4474C7.4185 13.4483 7.40979 13.4493 7.40116 13.4506C5.86161 13.6136 4.66654 14.9584 4.66663 16.5459C4.66663 19.9828 5.2935 22.8003 6.69031 25.5969C6.63123 25.6459 6.57369 25.6974 6.51778 25.7512C5.62618 26.5978 5.30066 27.9358 5.76737 29.1553C6.01143 29.7935 6.09086 29.8739 8.12553 31.9358C8.61975 32.4366 9.23458 33.0598 10.0029 33.8434C11.7579 35.6334 13.4988 36.2586 14.6508 36.6723C14.6771 36.6818 14.7032 36.6912 14.729 36.7005V42.3437C14.729 42.6876 15.0023 42.9662 15.3394 42.9662C15.6765 42.9662 15.9497 42.6876 15.9497 42.3437V36.2642C15.9497 36.0061 15.7937 35.7748 15.5573 35.6826C15.4034 35.6226 15.2347 35.5621 15.0561 35.498C14.0083 35.1217 12.4249 34.553 10.866 32.9629C10.0966 32.1781 9.48083 31.5541 8.98588 31.0525C7.05489 29.0957 7.04928 29.0809 6.90458 28.7026C6.56628 27.8187 6.94519 26.792 7.76721 26.3654C7.77039 26.3638 7.77348 26.3621 7.77657 26.3604C7.77844 26.3594 7.78023 26.3585 7.7821 26.3575C7.79504 26.3503 7.80758 26.3427 7.81978 26.3347C7.82035 26.3344 7.821 26.334 7.82166 26.3336C7.82532 26.3312 7.8289 26.3287 7.83248 26.3263C7.83313 26.3258 7.83386 26.3253 7.83451 26.3248C7.83565 26.324 7.83687 26.3232 7.83801 26.3223C8.06905 26.2126 8.32223 26.1531 8.58508 26.1494C9.08305 26.1452 9.55261 26.3367 9.90515 26.6963L13.2998 30.1588C13.3177 30.1961 13.3396 30.2319 13.3658 30.2656C13.5069 30.4474 13.7203 30.5252 13.9234 30.499C14.0673 30.4903 14.2089 30.4299 14.3188 30.3178C14.3586 30.2772 14.3917 30.2324 14.4182 30.1848C16.0926 28.6237 18.7002 28.6693 20.32 30.3215C20.9714 30.9858 21.7695 30.039 21.2187 29.4773C19.1405 27.3575 16.0069 27.3044 13.8952 29.0052L10.7684 25.8158C10.1807 25.2164 9.40165 24.8911 8.56832 24.9044C8.29537 24.9082 8.02869 24.9481 7.7734 25.0219C6.47156 22.4102 5.88733 19.771 5.88733 16.5459C5.88733 15.578 6.6274 14.7605 7.57239 14.6847C7.57865 14.6842 7.58484 14.6836 7.59111 14.6829C8.00704 14.6533 8.41125 14.7658 8.75037 15.0028L11.5848 25.7944C11.7605 26.4593 12.1365 27.0296 12.672 27.4438C13.192 27.8447 13.8357 28.0663 14.4843 28.0663H14.4851C14.7464 28.0663 15.0084 28.0306 15.2631 27.9617L19.4843 26.808C19.8207 26.937 20.174 27.0023 20.5377 27.0023H23.9002C24.5417 28.1274 24.8725 29.27 24.8839 30.3984L24.8896 36.2641V42.3436C24.8896 42.6875 25.1629 42.9662 25.5 42.9662C25.8371 42.9662 26.1103 42.6875 26.1103 42.3436V36.2635L26.1047 30.5173C26.1117 30.4807 26.1155 30.4429 26.1159 30.4042C26.1274 29.2704 26.4582 28.1273 27.0997 27.0023H30.4621C30.9043 27.0023 31.331 26.9059 31.7307 26.7158C32.5404 26.3304 33.13 25.5978 33.3598 24.7414C33.5981 24.8057 33.8609 24.7181 34.0127 24.5015L34.1457 24.3116L35.5394 24.6925L35.5616 24.9248C35.5869 25.1905 35.7724 25.4009 36.0111 25.4661C36.0799 25.4849 36.1531 25.4917 36.2282 25.4842C36.5637 25.4509 36.8092 25.1465 36.7766 24.8043L36.3979 20.8337C36.3733 20.5755 36.1941 20.3598 35.9484 20.2927C35.7026 20.2254 35.4418 20.3209 35.2938 20.532L33.4657 23.1407V19.688C33.7933 19.6486 34.1124 19.54 34.4023 19.366L36.9507 17.836C38.3834 16.9758 38.9166 15.1468 38.1645 13.6723C37.7767 12.9118 37.1055 12.3707 36.3336 12.1453C36.4132 11.9056 36.4195 11.6433 36.3453 11.3907C36.2231 10.9742 35.9044 10.6584 35.4926 10.5458L34.5019 10.275C34.1762 10.1859 33.8416 10.3831 33.7544 10.7152C33.6671 11.0473 33.8603 11.3887 34.1859 11.4777L35.1761 11.7467L34.7265 12.2619C34.556 12.4573 34.5234 12.7405 34.6449 12.9709C34.7664 13.2011 35.0167 13.3294 35.27 13.2919C36.0068 13.1825 36.7347 13.5667 37.0817 14.2469C37.5264 15.1189 37.1899 16.2476 36.3315 16.7629L33.783 18.293C33.683 18.3531 33.5761 18.3973 33.4658 18.425V4.59555L41.3105 6.73998C42.0885 6.95082 42.632 7.67207 42.6329 8.49476C42.6329 8.65414 42.6117 8.81351 42.5719 8.96708L41.1288 14.4603C41.1257 14.4709 41.1228 14.4817 41.1203 14.4925L38.236 25.4724C38.0284 26.2659 37.3204 26.8203 36.5148 26.8212C36.3593 26.8212 36.2031 26.7996 36.0518 26.759L33.9887 26.1945C33.9366 26.1803 33.8837 26.1738 33.83 26.1738C33.555 26.1738 33.3125 26.3629 33.2417 26.6353C33.1993 26.7955 33.2206 26.9632 33.3028 27.1076C33.3842 27.2511 33.5152 27.3541 33.6731 27.3972L35.7361 27.9608C35.9908 28.0306 36.2529 28.0663 36.5157 28.0663C37.1643 28.0663 37.8081 27.8447 38.3281 27.4438C38.8636 27.0296 39.2395 26.4593 39.4145 25.7953L42.2499 15.0037C42.5936 14.7636 43.0052 14.6511 43.4275 14.6847C43.4275 14.6847 43.4277 14.6847 43.4279 14.6847C44.3728 14.7605 45.1129 15.578 45.1128 16.5459C45.1128 19.771 44.5286 22.4101 43.2269 25.022C42.9716 24.9483 42.705 24.9084 42.4321 24.9046C42.4175 24.9043 42.4032 24.9042 42.3887 24.9042C41.5739 24.9042 40.8094 25.2271 40.232 25.8158L37.0846 29.0262C34.8555 27.2205 31.7293 27.4596 29.7867 29.4305C29.5666 29.6537 29.5348 30.0174 29.7274 30.2656C29.9585 30.5635 30.384 30.5821 30.6394 30.3216C32.3052 28.6224 35.0158 28.6224 36.6816 30.3216C37.0997 30.748 37.5782 30.5107 37.7217 30.1374L41.0953 26.6963C41.4479 26.3367 41.9178 26.146 42.4154 26.1494C42.6782 26.1531 42.9312 26.2126 43.1621 26.3222C43.18 26.3348 43.1988 26.3467 43.2183 26.3575C43.2246 26.361 43.2309 26.3644 43.2373 26.3676C44.0564 26.7954 44.4335 27.8201 44.0957 28.7028C43.951 29.0809 43.9454 29.0956 42.014 31.053C41.5191 31.5545 40.9034 32.1784 40.1342 32.9629C38.5756 34.5528 36.9922 35.1215 35.9445 35.4978C35.7659 35.562 35.597 35.6226 35.4431 35.6826C35.2067 35.7748 35.0507 36.006 35.0507 36.2642V42.3437C35.0507 42.6876 35.3239 42.9662 35.661 42.9662C35.9982 42.9662 36.2714 42.6876 36.2714 42.3437V36.7006C36.2973 36.6912 36.3236 36.6817 36.3501 36.6723C37.5019 36.2586 39.2427 35.6333 40.9975 33.8434C41.7655 33.06 42.3802 32.4371 42.8744 31.9363C44.9095 29.874 44.9889 29.7936 45.2329 29.1555C45.6984 27.938 45.3749 26.6024 44.4868 25.7557ZM35.3406 22.6067L35.4133 23.369L34.9039 23.2298L35.3406 22.6067ZM14.0398 17.8291C13.9557 17.7651 13.9259 17.6515 13.9674 17.5532L15.7614 13.2974C15.799 13.2083 15.8706 13.1769 15.91 13.1662C15.9493 13.1554 16.0268 13.1459 16.103 13.204L17.5341 14.2934V20.489L14.0398 17.8291ZM25.5 27.4893C25.4333 27.3266 25.3613 27.1641 25.2837 27.0023H25.7161C25.6386 27.1642 25.5666 27.3266 25.5 27.4893ZM31.2253 25.5823C31.2181 25.5857 31.2109 25.5891 31.2037 25.5926C30.9701 25.7018 30.7207 25.7572 30.4622 25.7572H20.5377C20.2765 25.7572 20.0245 25.7006 19.7889 25.5891C19.7863 25.5878 19.7836 25.5865 19.7809 25.5852C19.1574 25.2862 18.7548 24.6406 18.7548 23.9387V21.2107C18.755 21.2023 18.755 21.1938 18.7548 21.1853V13.9847C18.7548 13.9824 18.7548 13.9801 18.7548 13.9778V3.88385C18.7551 3.87554 18.7552 3.86716 18.7552 3.85878C18.7551 3.85338 18.755 3.84799 18.7548 3.84267V3.5299C18.7548 2.52717 19.5546 1.71136 20.5378 1.71136H30.4623C31.4454 1.71136 32.2452 2.52717 32.2452 3.5299V19.041C32.2452 19.0475 32.2452 19.0539 32.2452 19.0604V23.9387C32.2452 24.6383 31.8452 25.2822 31.2253 25.5823Z" fill="#1C2042"/>
<path d="M21.1562 6.8524L21.2576 6.6286H23.0759L23.1771 6.8524C23.2929 7.10842 23.586 7.26626 23.8974 7.26626C23.9871 7.26626 24.0784 7.25317 24.1673 7.22555C24.565 7.10187 24.7666 6.73451 24.6174 6.4048L22.8868 2.57986C22.7742 2.33107 22.4872 2.16626 22.1666 2.16626C21.846 2.16626 21.559 2.33107 21.4465 2.57986L19.7158 6.4048C19.5666 6.73451 19.7682 7.10187 20.1659 7.22555C20.5636 7.34896 21.0071 7.18203 21.1562 6.8524ZM22.1666 4.61915L22.4989 5.35362H21.8343L22.1666 4.61915Z" fill="#1C2042"/>
<path d="M29.5535 19.5799C29.4409 19.3312 29.154 19.1663 28.8334 19.1663C28.5128 19.1663 28.2257 19.3311 28.1132 19.5799L26.3826 23.4047C26.2334 23.7344 26.435 24.1018 26.8327 24.2255C27.2305 24.349 27.6739 24.182 27.823 23.8524L27.9242 23.6286H29.7425L29.8439 23.8524C29.9597 24.1083 30.2528 24.2663 30.5641 24.2663C30.6539 24.2663 30.7451 24.2532 30.834 24.2255C31.2318 24.1019 31.4334 23.7345 31.2842 23.4048L29.5535 19.5799ZM28.5011 22.3537L28.8334 21.6193L29.1657 22.3537H28.5011Z" fill="#1C2042"/>
<path d="M27.0196 16.7088L28.8636 14.4756C29.8932 13.2289 29.9385 11.2624 28.9666 9.99883C28.4664 9.34855 27.7859 8.98205 27.0501 8.9669C26.4896 8.95495 25.9524 9.1496 25.5001 9.52208C25.0477 9.1496 24.5111 8.95343 23.95 8.9669C23.2143 8.98205 22.5337 9.34855 22.0335 9.99883C21.0616 11.2624 21.1068 13.2289 22.1363 14.4756L23.9805 16.7088C24.3838 17.1973 24.9235 17.4662 25.5001 17.4662C26.0766 17.4662 26.6162 17.1972 27.0196 16.7088ZM25.5 16.2039C25.2218 16.2039 24.9602 16.0726 24.7635 15.8344L22.9195 13.6013C22.2913 12.8406 22.2568 11.6019 22.8427 10.8402C23.139 10.455 23.5391 10.2378 23.9691 10.2289C23.9783 10.2287 23.9873 10.2287 23.9965 10.2287C24.2274 10.2287 24.4509 10.289 24.655 10.4038C24.6525 10.4282 24.6512 10.453 24.6512 10.4782C24.6512 10.8269 24.8943 11.1094 25.194 11.1094H25.2141C25.4504 11.1094 25.678 11.0096 25.8559 10.8285C25.8627 10.8216 25.8693 10.8146 25.8759 10.8072C25.8819 10.8005 25.8878 10.7936 25.8934 10.7866C26.1988 10.4182 26.5999 10.2202 27.0307 10.2289C27.4607 10.2378 27.8608 10.455 28.1572 10.8402C28.743 11.602 28.7085 12.8406 28.0803 13.6013L26.2362 15.8344C26.0397 16.0726 25.7782 16.2039 25.5 16.2039Z" fill="#1C2042"/>
<path d="M10.7394 7.28701C10.4222 7.35267 10.191 7.56353 10.1591 7.81612L9.67038 11.6985C9.62826 12.0332 9.94517 12.3308 10.3783 12.3634C10.8111 12.3957 11.1965 12.151 11.2387 11.8164L11.2672 11.5892L13.0662 11.2167L13.2379 11.4025C13.4343 11.6149 13.7748 11.7004 14.0829 11.6366C14.1716 11.6182 14.2577 11.5874 14.3368 11.5437C14.6908 11.3482 14.7727 10.968 14.5197 10.6945L11.5842 7.521C11.3933 7.3146 11.0566 7.22134 10.7394 7.28701ZM11.4302 10.295L11.524 9.54955L12.0877 10.1589L11.4302 10.295Z" fill="#1C2042"/>
</svg>
