<svg width="41" height="40" viewBox="0 0 41 40" fill="none" xmlns="http://www.w3.org/2000/svg">
<path d="M35.7914 30.5237C35.222 31.1395 34.5821 31.6738 33.8874 32.1136C30.5161 34.1186 26.411 34.019 23.126 31.853L20.1795 19.8503L20.1614 19.7851C20.2036 19.733 20.2458 19.6874 20.294 19.6353C21.2972 18.5738 22.6078 17.9176 24.0057 17.7781C24.1111 16.3869 24.6335 15.0713 25.4939 14.0313C25.5662 13.9401 25.6446 13.8488 25.7229 13.7642C28.1451 11.1447 32.2123 11.2685 34.9599 13.9727C34.99 14.0053 35.0201 14.0313 35.0502 14.0639C35.0864 14.0965 35.1105 14.1226 35.1406 14.1552C35.1653 14.1851 35.1912 14.2132 35.219 14.2399C35.2551 14.279 35.2852 14.3116 35.3214 14.3572C35.3576 14.3963 35.3877 14.4354 35.4239 14.4745C35.5143 14.5853 35.6046 14.696 35.689 14.8069C35.6938 14.8075 35.698 14.8101 35.7011 14.8133C35.7433 14.8655 35.7794 14.9111 35.8156 14.9632C35.8517 15.0153 35.8939 15.0609 35.924 15.113C39.491 19.8503 39.5091 26.5033 35.7914 30.5237Z" fill="#C52828"/>
<path d="M34.5834 32.0603C34.5456 32.0982 34.5142 32.1296 34.4764 32.1611C30.9559 34.0998 26.6689 34.0034 23.2384 31.9091L20.1614 20.3036C20.8278 19.993 21.5432 19.8008 22.2756 19.7366C22.3077 19.3857 22.3687 19.0379 22.4581 18.697C23.0024 18.4828 23.5743 18.3492 24.157 18.3001C24.2671 16.9549 24.8126 15.6829 25.7112 14.6773C28.4112 13.4632 31.5762 14.0088 33.715 16.0571C33.7464 16.0886 33.7779 16.1138 33.8094 16.1454C33.8471 16.1768 33.8723 16.202 33.9037 16.2336C33.9296 16.2625 33.9566 16.2897 33.9856 16.3155C34.0548 16.3911 34.1303 16.4668 34.1995 16.5423C34.2939 16.6495 34.3882 16.7565 34.4764 16.8637C34.4814 16.8643 34.4858 16.8669 34.489 16.87C34.533 16.9204 34.5708 16.9645 34.6085 17.0149C34.6463 17.0652 34.6903 17.1094 34.7218 17.1597C38.447 21.7401 38.4658 28.1729 34.5834 32.0603Z" fill="#F44335"/>
<path d="M23.4135 26.4177V26.6265C23.4135 26.7248 23.4135 26.8292 23.4075 26.9275C23.4075 27.0687 23.3893 27.2039 23.3772 27.339C23.3833 27.3451 23.3833 27.3513 23.3772 27.3513L23.3591 27.5356C23.353 27.5971 23.3469 27.6523 23.3409 27.7138L23.3427 27.6695C22.8987 32.2834 19.9892 36.0808 16.1142 37.3886C15.148 37.7191 14.1352 37.8874 13.1156 37.8862C7.80431 37.8862 3.43494 33.4087 2.88795 27.656L2.89036 27.7138C2.88432 27.6524 2.87821 27.5971 2.87217 27.5357C2.86614 27.4742 2.85399 27.4129 2.85399 27.3514C2.84795 27.3514 2.84795 27.3453 2.85399 27.3391C2.84184 27.2039 2.82373 27.0688 2.82373 26.9275C2.81769 26.8293 2.81769 26.7248 2.81769 26.6266V26.5099C2.81769 26.43 2.82373 26.3378 2.82373 26.258C2.89881 24.1652 3.84505 22.2032 5.4285 20.8586C6.50551 19.9592 7.85581 19.4648 9.25087 19.458C10.6538 19.4592 12.0114 19.9617 13.0853 20.877C13.0975 20.8831 13.1035 20.8954 13.1156 20.9016C13.1343 20.8838 13.1549 20.8671 13.1762 20.8524C14.2459 19.9531 15.5908 19.4605 16.9804 19.458C20.4211 19.458 23.2318 22.4741 23.4075 26.258C23.4129 26.3108 23.4147 26.3642 23.4135 26.4177Z" fill="#C52828"/>
<path d="M21.2455 27.5602V27.7708C21.2455 27.8699 21.2455 27.9752 21.2394 28.0743C21.2394 28.2168 21.2209 28.353 21.2087 28.4893C21.2148 28.4955 21.2148 28.5017 21.2087 28.5017L21.1903 28.6875C21.1841 28.7495 21.1779 28.8052 21.1718 28.8672L21.173 28.8368C20.8794 32.2716 19.0962 35.4003 16.3007 37.3844C15.321 37.7177 14.294 37.8874 13.2601 37.8862C7.87427 37.8862 3.4436 33.3711 2.88893 27.5701L2.89138 27.6284C2.88526 27.5664 2.87906 27.5107 2.87294 27.4487C2.86682 27.3867 2.8545 27.3249 2.8545 27.2629C2.84837 27.2629 2.84837 27.2567 2.8545 27.2505C2.84218 27.1142 2.82381 26.9779 2.82381 26.8355C2.81769 26.7364 2.81769 26.631 2.81769 26.532V26.4143C2.81769 26.3337 2.82381 26.2408 2.82381 26.1603C2.89995 24.0499 3.85946 22.0714 5.46512 20.7155C7.34539 20.2522 9.3319 20.7292 10.8031 21.9977C11.5077 21.3987 12.3368 20.9663 13.2294 20.734C13.2595 20.7228 13.2902 20.7148 13.3216 20.7093C13.7798 20.5972 14.2503 20.5414 14.7221 20.542C18.2111 20.542 21.0612 23.5835 21.2394 27.3992C21.2449 27.4524 21.2467 27.5063 21.2455 27.5602Z" fill="#F44335"/>
<path d="M13.1178 38.9702C7.26563 38.9702 2.30881 33.9248 1.78521 27.4609C1.78394 27.4441 1.78202 27.4268 1.78076 27.4094C1.77379 27.3702 1.77 27.3302 1.77 27.2903V27.2735C1.75354 27.1313 1.74472 26.9878 1.74346 26.8442C1.73649 26.7747 1.73589 26.6453 1.73589 26.5269V26.3119C1.73463 26.2322 1.73841 26.1523 1.74724 26.0731C1.97927 21.737 5.19154 18.374 9.08663 18.374C10.5359 18.3727 11.9479 18.8413 13.1177 19.7128C14.2875 18.8413 15.6995 18.3727 17.1488 18.374C21.0572 18.374 24.2783 21.7602 24.4901 26.0866C24.4977 26.1613 24.5009 26.2366 24.4996 26.3119V26.5268C24.4996 26.6459 24.4989 26.7746 24.4901 26.893C24.4889 27.0205 24.48 27.1473 24.4648 27.2741V27.2901C24.4648 27.3301 24.4611 27.3699 24.4541 27.4092C24.4528 27.4266 24.4516 27.444 24.4496 27.4607C23.9268 33.9248 18.9706 38.9702 13.1178 38.9702ZM3.07704 27.6887C3.68533 33.3288 8.01993 37.683 13.1178 37.683C18.2157 37.683 22.5503 33.3282 23.1585 27.6887C23.1579 27.6727 23.1585 27.6553 23.1585 27.6392L23.2268 26.133C23.0549 22.5171 20.3858 19.6614 17.1489 19.6614C15.8197 19.6634 14.5348 20.1454 13.5231 21.0221C13.2885 21.2222 12.9471 21.2222 12.7125 21.0221C11.7007 20.1454 10.4158 19.6628 9.08671 19.6614C5.85611 19.6614 3.19154 22.5056 3.00875 26.1414L3.07638 27.6385C3.07771 27.6552 3.07771 27.672 3.07704 27.6887Z" fill="#1C2042"/>
<path d="M4.53202 27.046C4.18514 27.046 3.90363 26.7954 3.90363 26.4859C3.90363 26.4859 3.90363 26.4859 3.90363 26.4853L3.9093 26.228C4.0463 23.6472 6.1483 21.626 8.69528 21.626C9.04216 21.626 9.32368 21.8771 9.32368 22.1866C9.32368 22.4961 9.04216 22.7473 8.69528 22.7473C6.8207 22.7473 5.26979 24.2998 5.16484 26.2812L5.15983 26.3731L5.1605 26.4852C5.16109 26.7949 4.87957 27.046 4.53202 27.046C4.53269 27.046 4.53269 27.046 4.53202 27.046Z" fill="#1C2042"/>
<path d="M21.149 29.2139C21.1116 29.2139 21.075 29.2125 21.0376 29.2097C20.4962 29.1657 20.1066 28.8147 20.1678 28.4261L20.359 26.9775L20.3501 26.696C20.3304 26.3046 20.7564 25.9769 21.2998 25.9628C21.3009 25.9628 21.3009 25.9628 21.3018 25.9628C21.8383 25.9437 22.2938 26.2408 22.3206 26.6265C22.3206 26.6329 22.3216 26.6399 22.3216 26.6463L22.3295 27.0229L22.2851 27.5625L22.1273 28.5843C22.0711 28.9424 21.65 29.2133 21.149 29.2139Z" fill="#1C2042"/>
<path d="M28.7989 33.5495C26.5855 33.541 24.4133 32.9624 22.5033 31.8735C22.2019 31.7019 22.1002 31.3256 22.2765 31.0324C22.4515 30.7403 22.8363 30.6407 23.1377 30.8098C27.3577 33.196 32.504 32.7183 35.6549 29.6526C39.288 26.1166 39.3334 20.2282 35.7617 15.9482L34.7779 14.9011C32.1476 12.5757 28.2783 12.4816 25.9904 14.7086C25.0534 15.6229 24.4803 16.8305 24.3723 18.1174C24.3445 18.4132 24.1038 18.6468 23.8005 18.6738C22.4781 18.7784 21.2372 19.3366 20.2976 20.2485C20.2578 20.2872 20.2231 20.321 20.1883 20.3597C19.9596 20.6161 19.5603 20.6432 19.2968 20.4206C19.0333 20.198 19.0055 19.8094 19.2343 19.553C19.2349 19.5524 19.2349 19.5518 19.2355 19.5518C19.2893 19.4915 19.3423 19.4393 19.4042 19.3796C20.4265 18.3829 21.7483 17.7293 23.1782 17.5123C23.4012 16.1209 24.0735 14.8346 25.0977 13.8398C27.8575 11.1547 32.4762 11.2236 35.6284 13.9929C35.6796 14.0304 35.7276 14.0728 35.7706 14.1189L35.7896 14.1355C35.8091 14.1521 35.8382 14.1798 35.8711 14.2129L35.921 14.264C35.9387 14.2769 35.9545 14.2917 35.9684 14.3082L35.9817 14.3218C36.0727 14.4097 36.1397 14.478 36.199 14.5462L36.2035 14.5511C36.2919 14.6384 36.3747 14.7306 36.4512 14.8272C36.5156 14.8936 36.5762 14.9637 36.6331 15.0362C36.6843 15.0958 36.7204 15.1395 36.7501 15.1801C40.7249 19.9501 40.6409 26.5413 36.5498 30.5219C34.4821 32.4945 31.6933 33.584 28.7989 33.5495Z" fill="#1C2042"/>
<path d="M27.3448 16.2061C26.9697 16.2061 26.6653 15.9472 26.6653 15.6276C26.6653 15.4741 26.7367 15.3264 26.8644 15.2176C27.7863 14.4468 29.031 14.0223 30.322 14.0385C30.697 14.0385 31.0014 14.298 31.0014 14.6176C31.0014 14.9373 30.697 15.1967 30.322 15.1967C29.3918 15.1816 28.493 15.4845 27.825 16.0364C27.6974 16.1453 27.5248 16.2061 27.3448 16.2061Z" fill="#1C2042"/>
<path d="M33.9614 29.214C33.5241 29.214 33.1693 28.9276 33.1693 28.5747C33.1693 28.4052 33.2524 28.2428 33.4013 28.1227C34.9627 26.8369 35.8635 25.1215 35.9213 23.3218C35.9403 22.9689 36.3102 22.6952 36.7475 22.7106C37.1817 22.7259 37.5192 23.02 37.5049 23.3704C37.432 25.4924 36.3657 27.5133 34.5215 29.0267C34.3733 29.1468 34.1713 29.2146 33.9614 29.214Z" fill="#1C2042"/>
<path d="M13.1863 22.71C12.8604 22.71 12.5932 22.4344 12.5822 22.0874C12.5684 21.636 12.2932 10.9654 17.2883 5.38471C19.155 3.27557 21.7628 2.09026 24.4851 2.11412L24.4996 3.40173C22.1046 3.37855 19.8086 4.41897 18.1633 6.27314C13.5146 11.4662 13.7873 21.9399 13.7903 22.0448C13.8018 22.3995 13.5406 22.6977 13.2068 22.7092C13.2062 22.7092 13.2062 22.7092 13.2056 22.7092C13.1997 22.71 13.193 22.71 13.1863 22.71Z" fill="#1C2042"/>
<path d="M24.9329 19.4579C24.8555 19.4579 24.7788 19.4443 24.7067 19.417C24.5305 19.3513 20.3927 17.7727 19.3251 13.8072C18.513 10.7907 19.7165 7.30058 22.9004 3.43455C23.1287 3.15745 23.5383 3.11779 23.8159 3.34608C24.0929 3.57436 24.1325 3.98411 23.9043 4.26182C21.0032 7.78508 19.8849 10.8829 20.5812 13.4689C21.4758 16.7938 25.1228 18.1844 25.1591 18.198C25.4959 18.3229 25.6676 18.6975 25.5427 19.0338C25.4486 19.2888 25.2053 19.4579 24.9329 19.4579Z" fill="#1C2042"/>
<path d="M35.3375 8.3914C34.1198 9.02325 32.7954 9.4361 31.428 9.60943C29.9432 9.82258 28.4274 9.66567 27.0217 9.15269C25.0472 8.46056 24.0168 6.33724 24.7167 4.40366C24.9879 3.71619 25.474 3.13001 26.1056 2.7289C27.1707 2.05839 28.4998 1.92785 29.6799 2.37758C31.6855 3.13289 35.3375 8.3914 35.3375 8.3914Z" fill="#2E7D32"/>
<path d="M33.1695 8.9258C32.6947 9.19026 32.2002 9.41647 31.6906 9.60127C30.1496 9.83323 28.5763 9.66248 27.1173 9.10425C25.068 8.35105 23.9986 6.04042 24.725 3.93627C25.0065 3.18815 25.511 2.55026 26.1666 2.11377C26.5543 2.14755 26.9346 2.23737 27.2975 2.38138C29.3791 3.2034 33.1695 8.9258 33.1695 8.9258Z" fill="#4CAF50"/>
<path d="M30.143 10.7857C28.9183 10.7922 27.7032 10.5708 26.558 10.1324C24.0904 9.23294 22.8106 6.49406 23.6958 4.00725C24.6908 1.56275 27.4625 0.389037 29.894 1.38363C32.1856 2.26876 35.8962 7.69382 36.3116 8.30993C36.5121 8.6069 36.4358 9.01204 36.1408 9.214C36.1278 9.22309 36.1149 9.23096 36.1014 9.23944C34.2669 10.2282 32.2237 10.7584 30.143 10.7857ZM28.0959 2.34827C26.6971 2.32154 25.4277 3.16703 24.9043 4.47357C24.2748 6.28882 25.222 8.27479 27.0219 8.91572C30.2407 10.1605 33.4783 9.0232 34.815 8.42527C33.5003 6.56502 30.8722 3.15595 29.43 2.59904C29.0049 2.43359 28.552 2.34896 28.0959 2.34827Z" fill="#1C2042"/>
</svg>
