<svg width="41" height="40" viewBox="0 0 41 40" fill="none" xmlns="http://www.w3.org/2000/svg">
<g clip-path="url(#clip0_3986_2651)">
<path d="M36.8738 31.8313C36.7835 31.8313 36.6941 31.8136 36.6107 31.779C36.5273 31.7445 36.4515 31.6938 36.3876 31.63C36.3238 31.5661 36.2732 31.4904 36.2386 31.4069C36.2041 31.3235 36.1863 31.2341 36.1863 31.1438V26.997C36.1863 26.8145 36.2588 26.6396 36.3878 26.5106C36.5168 26.3816 36.6917 26.3091 36.8742 26.3091C37.0566 26.3091 37.2316 26.3816 37.3606 26.5106C37.4896 26.6396 37.5621 26.8145 37.5621 26.997V31.1431C37.5622 31.2335 37.5444 31.323 37.5099 31.4066C37.4753 31.4901 37.4246 31.5661 37.3607 31.63C37.2968 31.6939 37.2208 31.7446 37.1373 31.7792C37.0537 31.8137 36.9642 31.8315 36.8738 31.8313Z" fill="white"/>
<path d="M35.2421 5.36074V19.4232C35.242 19.6726 35.1468 19.9125 34.976 20.0941C34.8051 20.2757 34.5715 20.3853 34.3226 20.4006H34.2625H27.5515V4.38184H34.2609C34.3896 4.38163 34.5171 4.40679 34.6361 4.45589C34.7551 4.50498 34.8632 4.57704 34.9544 4.66795C35.0455 4.75886 35.1178 4.86684 35.1672 4.98571C35.2166 5.10458 35.242 5.23202 35.2421 5.36074Z" fill="white"/>
<path d="M34.2605 21.1063H27.5496C27.3631 21.1063 27.1842 21.0322 27.0524 20.9004C26.9205 20.7685 26.8464 20.5897 26.8464 20.4032V4.38208C26.8464 4.1956 26.9205 4.01676 27.0524 3.8849C27.1842 3.75303 27.3631 3.67896 27.5496 3.67896H34.2605C34.7061 3.67937 35.1334 3.85653 35.4486 4.17156C35.7638 4.4866 35.9411 4.91379 35.9417 5.35942V19.4219C35.9415 19.8491 35.7787 20.2602 35.4865 20.5718C35.1944 20.8834 34.7946 21.0723 34.3683 21.1C34.3347 21.1055 34.298 21.1063 34.2605 21.1063ZM28.2511 19.7H34.2785C34.3489 19.6955 34.415 19.6643 34.4633 19.6128C34.5117 19.5613 34.5386 19.4933 34.5386 19.4227V5.3602C34.5382 5.28671 34.5087 5.21637 34.4566 5.16455C34.4045 5.11273 34.334 5.08364 34.2605 5.08364H28.2527L28.2511 19.7Z" fill="#1C2042"/>
<path d="M26.6628 12.0469C26.6628 12.0469 28.505 10.8547 29.8058 8.03674C29.8058 8.03674 30.998 10.9633 32.9488 12.0469C32.9488 12.0469 30.7816 13.7813 29.8058 16.1656C29.8074 16.1649 28.7214 13.4555 26.6628 12.0469Z" fill="#A5A5A5"/>
<path d="M29.8079 16.9118C29.6592 16.9113 29.514 16.8664 29.391 16.7829C29.2679 16.6994 29.1726 16.581 29.1173 16.443C29.1071 16.4188 28.0868 13.9227 26.2462 12.6634C26.1447 12.594 26.0619 12.5008 26.0052 12.3918C25.9484 12.2828 25.9194 12.1616 25.9207 12.0387C25.922 11.9159 25.9536 11.7952 26.0127 11.6875C26.0718 11.5798 26.1565 11.4883 26.2594 11.4212C26.2852 11.404 27.9524 10.2798 29.1321 7.72351C29.193 7.59119 29.2913 7.47959 29.4149 7.40243C29.5385 7.32527 29.6819 7.28594 29.8275 7.28926C29.9731 7.29258 30.1146 7.33841 30.2345 7.42112C30.3545 7.50383 30.4476 7.6198 30.5024 7.75476C30.5133 7.78132 31.6227 10.4532 33.3149 11.3938C33.422 11.4534 33.5129 11.5383 33.5794 11.6413C33.6459 11.7442 33.6861 11.862 33.6964 11.9841C33.7066 12.1062 33.6867 12.229 33.6383 12.3416C33.5899 12.4542 33.5145 12.5532 33.4188 12.6298C33.3993 12.6454 31.3876 14.279 30.5008 16.4477C30.4446 16.5852 30.3486 16.7028 30.2252 16.7855C30.1017 16.8682 29.9564 16.9121 29.8079 16.9118ZM27.8548 12.0399C28.718 12.8212 29.3719 13.7665 29.8141 14.5227C30.3647 13.6474 31.0172 12.8404 31.7579 12.1188C30.9048 11.3962 30.2383 10.4321 29.7883 9.65554C29.2563 10.5356 28.6057 11.3382 27.8548 12.0407V12.0399Z" fill="#1C2042"/>
<path d="M14.0746 4.26172V20.4023H7.298C7.16801 20.4018 7.03944 20.3752 6.91987 20.3242C6.73965 20.2494 6.58565 20.1229 6.47732 19.9606C6.369 19.7984 6.31121 19.6076 6.31128 19.4125V5.24844C6.31128 5.11886 6.3368 4.99055 6.38639 4.87084C6.43598 4.75112 6.50866 4.64235 6.60028 4.55072C6.69191 4.4591 6.80068 4.38642 6.9204 4.33683C7.04011 4.28724 7.16842 4.26172 7.298 4.26172H14.0746Z" fill="white"/>
<path d="M14.075 21.1038H7.29839C7.07668 21.1038 6.85714 21.0601 6.65231 20.9753C6.44748 20.8905 6.26136 20.7661 6.10459 20.6093C5.94782 20.4525 5.82346 20.2664 5.73862 20.0616C5.65378 19.8568 5.61011 19.6372 5.61011 19.4155V5.24834C5.61073 4.80077 5.7888 4.37171 6.10528 4.05523C6.42176 3.73875 6.85082 3.56068 7.29839 3.56006H14.075C14.2614 3.56006 14.4403 3.63414 14.5721 3.766C14.704 3.89786 14.7781 4.0767 14.7781 4.26318V20.4038C14.7772 20.5897 14.7028 20.7678 14.571 20.899C14.4393 21.0302 14.2609 21.1038 14.075 21.1038ZM7.29839 4.96318C7.26094 4.96318 7.22386 4.97056 7.18926 4.98489C7.15467 4.99922 7.12323 5.02022 7.09675 5.0467C7.07027 5.07318 7.04927 5.10462 7.03494 5.13922C7.02061 5.17381 7.01323 5.21089 7.01323 5.24834V19.4155C7.01314 19.4719 7.0298 19.527 7.0611 19.5739C7.0924 19.6208 7.13692 19.6573 7.18901 19.6788C7.22359 19.6935 7.26082 19.701 7.29839 19.7007H13.3734V4.96318H7.29839Z" fill="#1C2042"/>
<path d="M14.4354 14.4469C14.5846 15.007 14.4135 15.5984 14.7713 16.0953H11.4119C11.4119 16.0953 11.5776 15.4453 11.8643 14.4891C12.0041 14.0203 11.8276 13.5727 11.344 13.6156C10.5088 13.6898 9.83224 13.0687 9.96974 11.825C10.1807 9.92656 12.9299 7.92813 13.1322 7.78281V7.77344L13.1393 7.77812L13.1455 7.77344V7.78281C13.3479 7.92813 16.0971 9.92656 16.308 11.825C16.4518 13.1156 15.8924 13.732 14.9799 13.5945C14.5033 13.5227 14.3096 13.9766 14.4354 14.4469Z" fill="#A5A5A5"/>
<path d="M14.7702 16.8429H11.4109C11.2971 16.8429 11.1847 16.817 11.0825 16.767C10.9802 16.717 10.8907 16.6443 10.8208 16.5545C10.751 16.4646 10.7026 16.36 10.6793 16.2486C10.656 16.1372 10.6586 16.0219 10.6867 15.9116C10.6937 15.885 10.8484 15.2772 11.1195 14.3679C10.6259 14.3541 10.1569 14.1497 9.81087 13.7975C9.34212 13.3155 9.13197 12.5866 9.22572 11.7436C9.45306 9.69598 11.8999 7.75926 12.6015 7.24441C12.7043 7.14157 12.835 7.07102 12.9774 7.04146C13.1198 7.01189 13.2678 7.0246 13.4031 7.07801C13.4234 7.08582 13.4437 7.09441 13.464 7.10379C13.528 7.13442 13.5875 7.17387 13.6406 7.22098C14.2968 7.6991 16.8171 9.66316 17.0484 11.7429C17.1796 12.9233 16.8046 13.5577 16.4671 13.8827C16.2951 14.0442 16.0925 14.1697 15.8713 14.2517C15.65 14.3337 15.4146 14.3705 15.1788 14.36C15.2244 14.5868 15.2505 14.8171 15.257 15.0483C15.2726 15.3546 15.2851 15.5343 15.3757 15.6585C15.4563 15.77 15.5045 15.9016 15.5151 16.0388C15.5256 16.176 15.498 16.3134 15.4354 16.4359C15.3728 16.5585 15.2775 16.6613 15.1601 16.7331C15.0428 16.8049 14.9078 16.8429 14.7702 16.8429ZM12.3921 15.3491H13.7788C13.7734 15.271 13.7695 15.1929 13.7656 15.1233C13.7637 14.9608 13.7459 14.7988 13.7124 14.6397C13.571 14.1093 13.6726 13.5843 13.9851 13.2335C14.1232 13.0817 14.2975 12.9673 14.4918 12.9011C14.6861 12.8348 14.8939 12.8188 15.096 12.8546C15.2085 12.8718 15.3585 12.8764 15.4343 12.8038C15.5312 12.7108 15.6234 12.4202 15.5663 11.9061C15.4452 10.8124 14.1015 9.48426 13.1398 8.71473C12.1781 9.4866 10.8343 10.8155 10.7132 11.9061C10.671 12.2897 10.732 12.5975 10.882 12.7507C10.9345 12.7997 10.9977 12.836 11.0665 12.8567C11.1353 12.8774 11.208 12.882 11.2788 12.8702C11.4817 12.8473 11.687 12.8751 11.8764 12.9512C12.0659 13.0273 12.2334 13.1493 12.364 13.3061C12.6546 13.6632 12.7359 14.185 12.5812 14.7022C12.5109 14.9389 12.4476 15.1561 12.3921 15.3491Z" fill="#1C2042"/>
<path d="M39.5625 20.4023C39.5625 30.8391 31.1015 39.2969 20.6664 39.2969C10.2312 39.2969 1.77026 30.8391 1.77026 20.4023H14.075V21.0547C14.075 21.4069 14.2149 21.7447 14.464 21.9938C14.713 22.2429 15.0508 22.3828 15.4031 22.3828H26.225C26.5772 22.3828 26.915 22.2429 27.1641 21.9938C27.4131 21.7447 27.5531 21.4069 27.5531 21.0547V20.4023H39.5625Z" fill="#38C689"/>
<path d="M20.6667 40C15.4691 40 10.4844 37.9353 6.80911 34.26C3.13384 30.5847 1.06909 25.6 1.06909 20.4023C1.06909 20.2159 1.14317 20.037 1.27503 19.9052C1.40689 19.7733 1.58574 19.6992 1.77222 19.6992H14.0753C14.2618 19.6992 14.4407 19.7733 14.5725 19.9052C14.7044 20.037 14.7785 20.2159 14.7785 20.4023V21.0547C14.7785 21.2204 14.8443 21.3794 14.9615 21.4966C15.0787 21.6138 15.2377 21.6797 15.4035 21.6797H26.2253C26.3911 21.6797 26.5501 21.6138 26.6673 21.4966C26.7845 21.3794 26.8503 21.2204 26.8503 21.0547V20.4023C26.8503 20.2159 26.9244 20.037 27.0563 19.9052C27.1881 19.7733 27.367 19.6992 27.5535 19.6992H39.5628C39.7493 19.6992 39.9282 19.7733 40.06 19.9052C40.1919 20.037 40.266 20.2159 40.266 20.4023C40.266 22.9761 39.759 25.5246 38.774 27.9024C37.7891 30.2802 36.3454 32.4407 34.5254 34.2605C32.7054 36.0804 30.5448 37.5239 28.1669 38.5087C25.789 39.4934 23.2405 40.0002 20.6667 40ZM2.4855 21.1039C2.85425 30.8125 10.8699 38.5938 20.6667 38.5938C30.4636 38.5938 38.4792 30.8125 38.848 21.1039H28.2519C28.2379 21.6324 28.0183 22.1346 27.6399 22.5039C27.2615 22.8731 26.754 23.0802 26.2253 23.0813H15.4011C14.8723 23.0804 14.3646 22.8734 13.986 22.5041C13.6075 22.1349 13.3878 21.6326 13.3738 21.1039H2.4855Z" fill="#1C2042"/>
<path d="M26.2253 0.703125H15.4011C15.0489 0.703125 14.7111 0.843052 14.462 1.09212C14.2129 1.3412 14.073 1.67901 14.073 2.03125V21.0547C14.073 21.4069 14.2129 21.7447 14.462 21.9938C14.7111 22.2429 15.0489 22.3828 15.4011 22.3828H26.2253C26.5776 22.3828 26.9154 22.2429 27.1645 21.9938C27.4135 21.7447 27.5535 21.4069 27.5535 21.0547V2.02656C27.5522 1.67513 27.4118 1.33852 27.1628 1.09047C26.9139 0.842406 26.5768 0.703123 26.2253 0.703125Z" fill="white"/>
<path d="M26.2253 23.0812H15.4011C14.8632 23.0813 14.3473 22.8679 13.9665 22.488C13.5857 22.108 13.3711 21.5926 13.3699 21.0547V2.02656C13.3711 1.48865 13.5857 0.973201 13.9665 0.593281C14.3473 0.213361 14.8632 -1.4323e-06 15.4011 0H26.2253C26.7626 0.00103171 27.2775 0.21485 27.6575 0.594659C28.0374 0.974467 28.2514 1.48933 28.2527 2.02656V21.0547C28.2514 21.5919 28.0374 22.1068 27.6575 22.4866C27.2775 22.8664 26.7626 23.0802 26.2253 23.0812ZM15.4011 1.40625C15.2354 1.40625 15.0764 1.4721 14.9592 1.58931C14.842 1.70652 14.7761 1.86549 14.7761 2.03125V21.0547C14.7761 21.2204 14.842 21.3794 14.9592 21.4966C15.0764 21.6138 15.2354 21.6797 15.4011 21.6797H26.2253C26.3911 21.6797 26.5501 21.6138 26.6673 21.4966C26.7845 21.3794 26.8503 21.2204 26.8503 21.0547V2.02656C26.8503 1.8608 26.7845 1.70183 26.6673 1.58462C26.5501 1.46741 26.3911 1.40156 26.2253 1.40156L15.4011 1.40625Z" fill="#1C2042"/>
<path d="M20.8119 8.82829C19.6729 7.54782 17.276 8.14548 17.4908 10.0705C17.6947 11.9088 20.0322 13.8314 20.7932 14.4127V14.4416L20.8119 14.4267L20.8307 14.4416V14.4127C21.5916 13.8314 23.9291 11.9127 24.133 10.0705C24.3479 8.14548 21.951 7.5486 20.8119 8.82829Z" fill="#FF5368"/>
<path d="M20.8327 15.1437H20.814C20.7034 15.1466 20.5937 15.1233 20.4938 15.0758C20.3939 15.0283 20.3066 14.9579 20.239 14.8703C19.1812 14.0429 17.0148 12.1258 16.7952 10.1484C16.6742 9.05466 17.1999 8.11169 18.1687 7.68044C18.5936 7.49464 19.0583 7.41818 19.5204 7.45803C19.9824 7.49787 20.4272 7.65276 20.814 7.90857C21.2008 7.65276 21.6456 7.49787 22.1076 7.45803C22.5697 7.41818 23.0344 7.49464 23.4593 7.68044C24.4281 8.11169 24.9538 9.05779 24.8327 10.1492C24.6132 12.1273 22.4468 14.0437 21.389 14.8711C21.3233 14.9561 21.2391 15.025 21.1426 15.0724C21.0462 15.1198 20.9402 15.1445 20.8327 15.1445V15.1437ZM19.2765 8.85232C19.0917 8.85111 18.9086 8.88836 18.739 8.96169C18.4499 9.0906 18.1202 9.37341 18.1921 9.99294C18.3171 11.1164 19.564 12.5008 20.8163 13.5328C22.0663 12.5015 23.3163 11.1172 23.4406 9.99372C23.5093 9.37419 23.1796 9.0906 22.8937 8.96247C22.6316 8.84993 22.3411 8.82166 22.0623 8.88157C21.7834 8.94148 21.5301 9.0866 21.3374 9.29685C21.2715 9.37063 21.1907 9.42966 21.1004 9.47007C21.01 9.51049 20.9122 9.53138 20.8132 9.53138C20.7143 9.53138 20.6164 9.51049 20.5261 9.47007C20.4357 9.42966 20.355 9.37063 20.289 9.29685C20.1614 9.15516 20.0052 9.04225 19.8306 8.96561C19.656 8.88896 19.4671 8.85034 19.2765 8.85232Z" fill="#1C2042"/>
<path d="M21.698 29.4203H18.6636C18.4582 29.4203 18.2917 29.5868 18.2917 29.7922V35.1265C18.2917 35.3319 18.4582 35.4984 18.6636 35.4984H21.698C21.9034 35.4984 22.0699 35.3319 22.0699 35.1265V29.7922C22.0699 29.5868 21.9034 29.4203 21.698 29.4203Z" fill="#FCBE22"/>
<path d="M21.6992 36.1998H18.664C18.3794 36.1996 18.1065 36.0864 17.9052 35.8852C17.7039 35.6839 17.5908 35.411 17.5906 35.1264V29.7912C17.5908 29.5066 17.7039 29.2337 17.9052 29.0324C18.1065 28.8311 18.3794 28.718 18.664 28.7178H21.6992C21.9838 28.718 22.2567 28.8311 22.458 29.0324C22.6592 29.2337 22.7724 29.5066 22.7726 29.7912V35.1264C22.7724 35.411 22.6592 35.6839 22.458 35.8852C22.2567 36.0864 21.9838 36.1996 21.6992 36.1998ZM18.9937 34.7936H21.3703V30.1217H18.9953L18.9937 34.7936Z" fill="#1C2042"/>
<path d="M28.3253 24.5972L25.8594 26.7182C25.6926 26.8617 25.6737 27.1132 25.8172 27.28L29.5458 31.6149C29.6893 31.7817 29.9408 31.8006 30.1076 31.6571L32.5734 29.5361C32.7402 29.3926 32.7592 29.1411 32.6157 28.9743L28.8871 24.6394C28.7436 24.4726 28.4921 24.4537 28.3253 24.5972Z" fill="#FF5368"/>
<path d="M29.8527 32.4688C29.6941 32.4691 29.5373 32.4351 29.3931 32.369C29.2489 32.3029 29.1208 32.2063 29.0175 32.086L25.2894 27.7493C25.0995 27.5278 25.0052 27.2401 25.0272 26.9493C25.0491 26.6584 25.1856 26.3881 25.4066 26.1977L27.8738 24.0766C28.0952 23.8867 28.3829 23.7924 28.6738 23.8144C28.9646 23.8364 29.2349 23.9728 29.4253 24.1938L33.1534 28.5305C33.3433 28.752 33.4376 29.0397 33.4156 29.3305C33.3937 29.6214 33.2572 29.8917 33.0363 30.0821L30.5691 32.2032C30.37 32.375 30.1156 32.4693 29.8527 32.4688ZM26.5519 27.0649L29.8855 30.9422L31.8917 29.2188L28.5573 25.3391L26.5519 27.0649Z" fill="#1C2042"/>
<path d="M8.39691 29.5577L10.8628 31.6787C11.0296 31.8222 11.2811 31.8033 11.4246 31.6365L15.1532 27.3016C15.2967 27.1349 15.2778 26.8833 15.111 26.7399L12.6451 24.6188C12.4783 24.4753 12.2268 24.4943 12.0833 24.661L8.35468 28.9959C8.2112 29.1627 8.23011 29.4142 8.39691 29.5577Z" fill="#2EC4FF"/>
<path d="M11.1141 32.4688C10.8511 32.4692 10.5968 32.3749 10.3977 32.2031L7.93208 30.0828C7.7111 29.8924 7.57466 29.6221 7.55269 29.3313C7.53072 29.0404 7.62502 28.7527 7.81489 28.5313L11.543 24.1945C11.7334 23.9736 12.0037 23.8371 12.2946 23.8151C12.5854 23.7932 12.8731 23.8875 13.0946 24.0773L15.5618 26.1984C15.6714 26.2926 15.7613 26.4074 15.8265 26.5364C15.8918 26.6653 15.9309 26.8059 15.9418 26.9499C15.9527 27.094 15.9351 27.2388 15.89 27.3761C15.8449 27.5134 15.7732 27.6404 15.679 27.75L11.9508 32.0867C11.8473 32.2071 11.7189 32.3036 11.5744 32.3696C11.43 32.4356 11.2729 32.4694 11.1141 32.4688ZM9.07505 29.2188L11.0829 30.9445L14.4165 27.0648L12.4086 25.3391L9.07505 29.2188Z" fill="#1C2042"/>
<path d="M36.4089 24.1055H32.6003C32.4139 24.1055 32.235 24.0314 32.1032 23.8995C31.9713 23.7677 31.8972 23.5888 31.8972 23.4023C31.8972 23.2159 31.9713 23.037 32.1032 22.9052C32.235 22.7733 32.4139 22.6992 32.6003 22.6992H36.4089C36.5954 22.6992 36.7743 22.7733 36.9061 22.9052C37.038 23.037 37.1121 23.2159 37.1121 23.4023C37.1121 23.5888 37.038 23.7677 36.9061 23.8995C36.7743 24.0314 36.5954 24.1055 36.4089 24.1055Z" fill="white"/>
</g>
<defs>
<clipPath id="clip0_3986_2651">
<rect width="40" height="40" fill="white" transform="translate(0.666748)"/>
</clipPath>
</defs>
</svg>
