<svg width="38" height="38" viewBox="0 0 38 38" fill="none" xmlns="http://www.w3.org/2000/svg">
<path d="M22.9838 16.6955C23.5037 17.5851 24.2582 18.1102 25.2204 18.1225C26.6394 18.1406 27.789 16.9545 27.7743 15.5354C27.7724 15.3583 27.7632 15.1738 27.7445 14.9826C27.6709 14.2301 28.6176 13.838 29.0891 14.429C31.7188 17.7256 32.8998 22.8583 31.8078 27.0126C30.2892 32.7904 25.208 37.1518 18.9733 37.1518C11.6901 37.1518 5.78497 31.2474 5.78497 23.9635C5.78497 11.9367 17.6374 10.4846 15.9915 1.74364C15.8693 1.09438 16.5865 0.615517 17.1439 0.970134C19.4122 2.41295 23.2958 5.72629 23.2958 11.5001C23.2959 13.4409 22.2842 15.4982 22.9838 16.6955Z" fill="#F95428"/>
<path d="M12.1093 27.5633C12.1093 24.2326 13.325 21.7529 16.8323 18.4291C17.3383 17.9496 18.168 18.3497 18.1084 19.0442C18.0195 20.0779 17.9708 21.3331 18.1114 22.3408C18.3913 24.3471 19.806 25.6566 21.6976 25.6566C22.6484 25.6566 23.5121 25.2878 24.1551 24.6856C24.5396 24.3255 25.1677 24.4416 25.3693 24.9284C25.7029 25.7339 25.888 26.6164 25.8907 27.542C25.9018 31.2172 22.9849 34.2825 19.3134 34.447C15.3649 34.6239 12.1093 31.4381 12.1093 27.5633Z" fill="white"/>
<path d="M18.9952 34.9737C17.0852 34.9737 15.2828 34.2504 13.8878 32.9164C12.4268 31.5195 11.5889 29.5683 11.5889 27.5633C11.5889 24.0047 12.9129 21.4268 16.474 18.052C16.8626 17.6839 17.4249 17.5962 17.907 17.8283C18.389 18.0605 18.671 18.5552 18.6252 19.0887C18.5145 20.3762 18.5144 21.4759 18.625 22.269C18.8681 24.0113 20.0739 25.1371 21.6968 25.1371C22.4807 25.1371 23.2273 24.8421 23.7991 24.3065C24.1096 24.0158 24.5417 23.8958 24.9548 23.9848C25.3573 24.0718 25.6913 24.3502 25.8484 24.7298C26.2178 25.6214 26.4065 26.5671 26.4094 27.5406C26.4152 29.453 25.6868 31.2744 24.3583 32.6694C23.0295 34.065 21.2458 34.8806 19.3358 34.9662C19.222 34.9711 19.1084 34.9737 18.9952 34.9737ZM17.3475 18.7383C17.299 18.7383 17.2433 18.7546 17.1888 18.8062C13.864 21.957 12.6279 24.3304 12.6279 27.5633C12.6279 29.2861 13.3489 30.9634 14.6059 32.1655C15.8765 33.3804 17.54 34.0077 19.2893 33.928C22.6525 33.7774 25.3804 30.9133 25.3703 27.5437C25.3679 26.7062 25.2057 25.8933 24.8885 25.1272C24.8532 25.0421 24.7858 25.0112 24.7355 25.0003C24.6974 24.9922 24.5982 24.9816 24.5095 25.0648C23.7443 25.7814 22.7454 26.1761 21.6969 26.1761C19.5581 26.1761 17.9102 24.6636 17.5961 22.4125C17.4732 21.5312 17.4711 20.383 17.59 18.9997C17.6022 18.857 17.5113 18.791 17.456 18.7644C17.4297 18.7517 17.3915 18.7383 17.3475 18.7383ZM18.9733 37.6712C11.4147 37.6712 5.2655 31.5219 5.2655 23.9634C5.2655 17.5416 8.52719 14.0491 11.405 10.9676C13.9927 8.19668 16.2275 5.80372 15.481 1.83969C15.386 1.33441 15.5919 0.841155 16.0184 0.552296C16.4477 0.261655 16.986 0.253713 17.4229 0.531588C19.8104 2.05025 23.8155 5.4946 23.8155 11.5C23.8155 12.31 23.6574 13.1045 23.5044 13.8727C23.2994 14.902 23.106 15.8742 23.4325 16.4332C23.8805 17.1999 24.4843 17.5934 25.2272 17.6029C25.2355 17.6029 25.2441 17.603 25.2525 17.603C25.7761 17.603 26.2711 17.3962 26.6491 17.0191C27.0455 16.6236 27.2607 16.0985 27.2548 15.5407C27.2531 15.3712 27.244 15.2004 27.2276 15.0331C27.1717 14.4623 27.4908 13.934 28.0216 13.7187C28.5486 13.505 29.1406 13.6602 29.4952 14.1049C30.827 15.7745 31.8414 17.9701 32.3515 20.2874C32.8767 22.673 32.8625 25.0442 32.3104 27.1446C31.5345 30.0962 29.8211 32.7625 27.4859 34.6526C25.0461 36.6274 22.1024 37.6712 18.9733 37.6712ZM16.7376 1.36915C16.6749 1.36915 16.6253 1.39616 16.6009 1.41271C16.5535 1.44478 16.4777 1.51796 16.5021 1.64747C17.3459 6.1285 14.829 8.82353 12.1644 11.6768C9.41767 14.6179 6.30457 17.9514 6.30457 23.9634C6.30457 30.949 11.9877 36.6322 18.9733 36.6322C24.7251 36.6322 29.7962 32.6221 31.3054 26.8804C32.3344 22.9655 31.256 17.9785 28.6829 14.7529C28.5879 14.6337 28.4725 14.6571 28.4122 14.6815C28.3616 14.702 28.2456 14.7676 28.2617 14.932C28.281 15.1292 28.2917 15.3304 28.2939 15.53C28.3025 16.3577 27.9705 17.1687 27.383 17.7548C26.7993 18.3372 26.0314 18.651 25.2139 18.6419C24.0972 18.6277 23.171 18.0452 22.5353 16.9575C22.0098 16.0582 22.2407 14.898 22.4853 13.6699C22.6285 12.9511 22.7765 12.2076 22.7765 11.5002C22.7765 5.99112 19.0729 2.81278 16.8652 1.40848C16.8195 1.37939 16.776 1.36915 16.7376 1.36915Z" fill="#1C2042"/>
</svg>
