<svg width="38" height="38" viewBox="0 0 38 38" fill="none" xmlns="http://www.w3.org/2000/svg">
<g clip-path="url(#clip0_3986_2695)">
<path d="M37.3154 17.7332C37.1629 15.3692 36.5474 13.058 35.504 10.9312C35.1364 10.1704 34.7131 9.43808 34.2374 8.73996C32.9133 6.77606 31.2231 5.08585 29.2592 3.7618C28.5582 3.29068 27.8262 2.86769 27.068 2.49515C24.9412 1.45174 22.63 0.836243 20.266 0.683746C19.8479 0.645767 19.4238 0.633301 18.9993 0.633301C18.5749 0.633301 18.1508 0.645767 17.7327 0.683746C15.3687 0.836243 13.0575 1.45174 10.9307 2.49515C10.1725 2.86769 9.44049 3.29068 8.73947 3.7618C6.77557 5.08585 5.08536 6.77606 3.76131 8.73996C3.29019 9.44098 2.8672 10.173 2.49466 10.9312C1.45125 13.058 0.835754 15.3692 0.683258 17.7332C0.645279 18.1512 0.632812 18.5754 0.632812 18.9998C0.632812 19.4243 0.645279 19.8484 0.683258 20.2665C0.835754 22.6305 1.45125 24.9417 2.49466 27.0685C2.86227 27.8293 3.28555 28.5616 3.76131 29.2597C5.08536 31.2236 6.77557 32.9138 8.73947 34.2379C9.44049 34.7122 10.1751 35.1355 10.937 35.5045C13.0616 36.5479 15.3707 37.1634 17.7327 37.3159C18.1508 37.3539 18.5749 37.3664 18.9993 37.3664C19.4238 37.3664 19.8479 37.3539 20.266 37.3159C22.63 37.1634 24.9412 36.5479 27.068 35.5045C27.8288 35.1369 28.5611 34.7136 29.2592 34.2379C31.2231 32.9138 32.9133 31.2236 34.2374 29.2597C34.7131 28.5616 35.1364 27.8293 35.504 27.0685C36.5474 24.9417 37.1629 22.6305 37.3154 20.2665C37.3534 19.8484 37.3659 19.4243 37.3659 18.9998C37.3659 18.5754 37.3534 18.1512 37.3154 17.7332Z" fill="#CD4F38"/>
<path d="M33.5666 18.9999C33.5666 19.4305 33.5477 19.8485 33.5098 20.2666C33.2891 22.8147 32.4 25.2592 30.9321 27.3536C29.9574 28.7464 28.7464 29.9574 27.3537 30.9321C25.2593 32.3999 22.8147 33.2891 20.2666 33.5097C19.8486 33.5477 19.4305 33.5665 19 33.5665C18.5695 33.5665 18.1514 33.5477 17.7334 33.5097C15.1853 33.2891 12.7407 32.3999 10.6463 30.9321C9.25357 29.9574 8.04259 28.7464 7.06789 27.3536C5.60381 25.2575 4.71492 22.8138 4.49023 20.2666C4.45226 19.8485 4.43341 19.4305 4.43341 18.9999C4.43341 18.5694 4.45226 18.1514 4.49023 17.7333C4.63142 16.0361 5.07558 14.3781 5.80124 12.8375C6.15987 12.0721 6.58372 11.3389 7.06789 10.6463C8.04259 9.25351 9.25357 8.04253 10.6463 7.06783C11.3389 6.58366 12.0721 6.15981 12.8375 5.80118C14.3781 5.07552 16.0362 4.63136 17.7334 4.49017C18.1514 4.45219 18.5695 4.43335 19 4.43335C19.4305 4.43335 19.8486 4.45219 20.2666 4.49017C22.8147 4.7108 25.2593 5.59998 27.3537 7.06783C28.7464 8.04253 29.9574 9.25351 30.9321 10.6463C32.4 12.7406 33.2891 15.1852 33.5098 17.7333C33.5477 18.1514 33.5666 18.5694 33.5666 18.9999Z" fill="#728F9C"/>
<path d="M27.0696 2.49548L25.1634 5.80141C23.6228 5.07574 21.9648 4.63159 20.2676 4.4904V0.684082C22.6316 0.836578 24.9428 1.45207 27.0696 2.49548Z" fill="#728F9C"/>
<path d="M29.2595 3.76176L27.3533 7.06769C26.6621 6.58121 25.9286 6.15735 25.1621 5.80104L27.0683 2.49512C27.8264 2.86766 28.5585 3.29065 29.2595 3.76176Z" fill="#F85B44"/>
<path d="M34.238 8.74013L30.9321 10.6463C30.7547 10.3929 30.5708 10.1459 30.3746 9.9053C29.5092 8.81927 28.4919 7.86371 27.3536 7.06789L28.7026 4.72478L29.2598 3.76196C31.2237 5.08601 32.914 6.77623 34.238 8.74013Z" fill="#475962"/>
<path d="M35.5042 10.9314L32.1983 12.8376C32.0716 12.5654 31.9385 12.2932 31.793 12.0334C31.5329 11.5547 31.2453 11.0918 30.9316 10.6464L32.9202 9.50011L34.2376 8.74023C34.7133 9.43835 35.1366 10.1707 35.5042 10.9314Z" fill="#D13D34"/>
<path d="M37.3165 17.7332H33.5102C33.369 16.036 32.9249 14.378 32.1992 12.8374L34.0358 11.7797L35.5051 10.9312C36.5486 13.058 37.164 15.3692 37.3165 17.7332Z" fill="#475962"/>
<path d="M37.3665 19C37.3665 19.4245 37.3541 19.8486 37.3161 20.2667H33.5098C33.5477 19.8486 33.5666 19.4306 33.5666 19C33.5666 18.5695 33.5477 18.1515 33.5098 17.7334H37.3161C37.3541 18.1515 37.3665 18.5756 37.3665 19Z" fill="#D13D34"/>
<path d="M37.3165 20.2666C37.164 22.6306 36.5486 24.9418 35.5051 27.0686L34.0358 26.22L32.1992 25.1624C32.9249 23.6218 33.369 21.9638 33.5102 20.2666H37.3165Z" fill="#475962"/>
<path d="M35.5042 27.0688C35.1366 27.8295 34.7133 28.5619 34.2376 29.26L32.9202 28.5001L30.9316 27.3538C31.2453 26.9085 31.5329 26.4455 31.793 25.9668C31.9385 25.7071 32.0716 25.4348 32.1983 25.1626L35.5042 27.0688Z" fill="#D13D34"/>
<path d="M33.7056 10.9313L31.793 12.0333C31.5329 11.5546 31.2453 11.0916 30.9316 10.6463L32.9202 9.5C33.2089 9.96184 33.4713 10.4396 33.7056 10.9313Z" fill="#F85B44"/>
<path d="M35.5679 19C35.5679 19.4245 35.5554 19.8486 35.5174 20.2667H33.5098C33.5477 19.8486 33.5666 19.4306 33.5666 19C33.5666 18.5695 33.5477 18.1515 33.5098 17.7334H35.5174C35.5554 18.1515 35.5679 18.5756 35.5679 19Z" fill="#F85B44"/>
<path d="M33.7056 27.0688C33.4713 27.5605 33.2089 28.0383 32.9202 28.5001L30.9316 27.3538C31.2453 26.9084 31.5329 26.4454 31.793 25.9668L33.7056 27.0688Z" fill="#F85B44"/>
<path d="M34.238 29.2598C32.914 31.2237 31.2237 32.914 29.2598 34.238L28.7026 33.2752L27.3536 30.9321C28.4919 30.1363 29.5092 29.1807 30.3746 28.0947C30.5708 27.854 30.7547 27.607 30.9321 27.3536L34.238 29.2598Z" fill="#475962"/>
<path d="M32.3886 8.74008L30.3746 9.90526C29.5092 8.81923 28.4919 7.86366 27.3536 7.06784L28.7026 4.72473C30.1255 5.87077 31.3681 7.2244 32.3886 8.74008Z" fill="#728F9C"/>
<path d="M35.4673 17.7334H33.5103C33.3692 16.0362 32.925 14.3781 32.1993 12.8375L34.036 11.7799C34.8498 13.6681 35.3339 15.6816 35.4673 17.7334Z" fill="#728F9C"/>
<path d="M35.4673 20.2667C35.3339 22.3185 34.8498 24.3319 34.036 26.2202L32.1993 25.1626C32.925 23.6219 33.3692 21.9639 33.5103 20.2667H35.4673Z" fill="#728F9C"/>
<path d="M32.3886 29.2598C31.3681 30.7755 30.1255 32.1291 28.7026 33.2751L27.3536 30.932C28.4919 30.1362 29.5092 29.1806 30.3746 28.0946L32.3886 29.2598Z" fill="#728F9C"/>
<path d="M29.2595 34.2381C28.5614 34.7138 27.8291 35.1371 27.0683 35.5047L25.1621 32.1988C25.9286 31.8425 26.6621 31.4186 27.3533 30.9321L29.2595 34.2381Z" fill="#F85B44"/>
<path d="M27.0696 35.5047C24.9428 36.5481 22.6316 37.1636 20.2676 37.3161V33.5097C21.9648 33.3685 23.6228 32.9244 25.1634 32.1987L27.0696 35.5047Z" fill="#728F9C"/>
<path d="M20.2657 33.5098V37.3161C19.8477 37.3541 19.4235 37.3665 18.9991 37.3665C18.5746 37.3665 18.1505 37.3541 17.7324 37.3161V33.5098C18.1505 33.5477 18.5685 33.5666 18.9991 33.5666C19.4296 33.5666 19.8477 33.5477 20.2657 33.5098Z" fill="#F85B44"/>
<path d="M17.7333 33.5097V37.3161C15.3714 37.1636 13.0622 36.5481 10.9377 35.5047L12.8375 32.1987C14.3781 32.9244 16.0362 33.3685 17.7333 33.5097Z" fill="#728F9C"/>
<path d="M12.8375 32.1988L10.9377 35.5047C10.1758 35.1356 9.44113 34.7124 8.74011 34.2381L10.6463 30.9321C11.3375 31.4186 12.071 31.8425 12.8375 32.1988Z" fill="#F85B44"/>
<path d="M10.6463 30.9321L8.74013 34.238C6.77623 32.914 5.08601 31.2237 3.76196 29.2598L7.06789 27.3536C8.04259 28.7464 9.25357 29.9574 10.6463 30.9321Z" fill="#728F9C"/>
<path d="M7.06866 27.3538L3.76274 29.26C3.28699 28.5619 2.86371 27.8296 2.49609 27.0688L5.80202 25.1562C6.15804 25.9248 6.58218 26.6603 7.06866 27.3538Z" fill="#F85B44"/>
<path d="M5.80092 25.1561L2.495 27.0686C1.45158 24.9418 0.83609 22.6306 0.683594 20.2666H4.48991C4.63197 21.9615 5.07613 23.6175 5.80092 25.1561Z" fill="#728F9C"/>
<path d="M4.43275 19C4.43275 19.4306 4.4516 19.8486 4.48958 20.2667H0.683258C0.645279 19.8486 0.632812 19.4245 0.632812 19C0.632812 18.5756 0.645279 18.1515 0.683258 17.7334H4.48958C4.4516 18.1515 4.43275 18.5695 4.43275 19Z" fill="#F85B44"/>
<path d="M5.80092 12.8374C5.07526 14.378 4.6311 16.036 4.48991 17.7332H0.683594C0.83609 15.3692 1.45158 13.058 2.495 10.9312L5.80092 12.8374Z" fill="#728F9C"/>
<path d="M7.06866 10.6464C6.5845 11.3391 6.16064 12.0723 5.80202 12.8376L2.49609 10.9314C2.86864 10.1733 3.29163 9.44125 3.76274 8.74023L7.06866 10.6464Z" fill="#F85B44"/>
<path d="M10.6463 7.06789C9.25357 8.04259 8.04259 9.25357 7.06789 10.6463L3.76196 8.74013C5.08601 6.77623 6.77623 5.08601 8.74013 3.76196L10.6463 7.06789Z" fill="#728F9C"/>
<path d="M12.8375 5.80128C12.0721 6.15991 11.3389 6.58377 10.6463 7.06793L8.74011 3.76201C9.44113 3.29089 10.1732 2.8679 10.9313 2.49536L12.8375 5.80128Z" fill="#F85B44"/>
<path d="M17.7337 0.684082V4.4904C16.0365 4.63159 14.3785 5.07574 12.8378 5.80141L10.9316 2.49548C13.0585 1.45207 15.3697 0.836578 17.7337 0.684082Z" fill="#728F9C"/>
<path d="M20.2657 0.683746V4.49007C19.8477 4.45209 19.4296 4.43324 18.9991 4.43324C18.5685 4.43324 18.1505 4.45209 17.7324 4.49007V0.683746C18.1505 0.645767 18.5746 0.633301 18.9991 0.633301C19.4235 0.633301 19.8477 0.645767 20.2657 0.683746Z" fill="#5AB862"/>
<path d="M21.5333 19C21.5333 20.3991 20.3991 21.5333 19 21.5333C17.6008 21.5333 16.4667 20.3991 16.4667 19C16.4667 17.6008 17.6008 16.4667 19 16.4667C20.3991 16.4667 21.5333 17.6008 21.5333 19Z" fill="#FFA700"/>
<path d="M13.549 25.7177C13.549 26.4173 12.9819 26.9843 12.2823 26.9843C11.5828 26.9843 11.0157 26.4173 11.0157 25.7177C11.0157 25.0181 11.5828 24.451 12.2823 24.451C12.9819 24.451 13.549 25.0181 13.549 25.7177Z" fill="#FFA700"/>
<path d="M12.7303 24.3738C12.6874 24.4167 12.6523 24.4585 12.6152 24.5005C13.0498 24.6115 13.389 24.9519 13.4986 25.3871C13.5409 25.3497 13.583 25.3149 13.6253 25.2717C13.6253 25.2717 17.2081 23.4809 18.1037 21.6897C18.1529 21.5909 18.1941 21.4996 18.2379 21.4071C17.4464 21.1714 16.828 20.5515 16.5938 19.7598C16.5013 19.8035 16.41 19.8447 16.3111 19.8943C14.522 20.791 12.7303 24.3738 12.7303 24.3738Z" fill="#FFC900"/>
<path d="M26.9843 25.7177C26.9843 26.4173 26.4172 26.9843 25.7176 26.9843C25.0181 26.9843 24.451 26.4173 24.451 25.7177C24.451 25.0181 25.0181 24.451 25.7176 24.451C26.4172 24.451 26.9843 25.0181 26.9843 25.7177Z" fill="#FFA700"/>
<path d="M24.3739 25.27C24.4168 25.3129 24.4586 25.348 24.5006 25.3851C24.6108 24.9491 24.9511 24.6087 25.3872 24.4986C25.3498 24.4562 25.315 24.4145 25.2718 24.3719C25.2718 24.3719 23.481 20.7891 21.6899 19.8935C21.591 19.8442 21.4997 19.8031 21.4072 19.7593C21.1724 20.5519 20.5525 21.1718 19.7599 21.4066C19.8037 21.4991 19.8448 21.5904 19.8944 21.6893C20.7911 23.4783 24.3739 25.27 24.3739 25.27Z" fill="#FFC900"/>
<path d="M26.9843 12.2823C26.9843 12.9818 26.4172 13.5489 25.7176 13.5489C25.0181 13.5489 24.451 12.9818 24.451 12.2823C24.451 11.5827 25.0181 11.0156 25.7176 11.0156C26.4172 11.0156 26.9843 11.5827 26.9843 12.2823Z" fill="#FFA700"/>
<path d="M25.2705 13.6263C25.3134 13.5834 25.3485 13.5416 25.3856 13.4996C24.9504 13.39 24.6104 13.0511 24.499 12.6162C24.4567 12.6536 24.415 12.6884 24.3723 12.7313C24.3723 12.7313 20.7896 14.5224 19.894 16.3135C19.8447 16.4124 19.8035 16.5037 19.7598 16.5962C20.5515 16.8304 21.1714 17.4488 21.4071 18.2403C21.4996 18.1965 21.5909 18.1554 21.6897 18.1058C23.4788 17.2091 25.2705 13.6263 25.2705 13.6263Z" fill="#FFC900"/>
<path d="M13.549 12.2823C13.549 12.9818 12.9819 13.5489 12.2823 13.5489C11.5828 13.5489 11.0157 12.9818 11.0157 12.2823C11.0157 11.5827 11.5828 11.0156 12.2823 11.0156C12.9819 11.0156 13.549 11.5827 13.549 12.2823Z" fill="#FFA700"/>
<path d="M13.6253 12.7298C13.5824 12.6869 13.5406 12.6519 13.4986 12.6147C13.3882 13.0488 13.0492 13.3874 12.6152 13.4981C12.6526 13.5405 12.6874 13.5825 12.7303 13.6248C12.7303 13.6248 14.5214 17.2076 16.3125 18.1032C16.4114 18.1525 16.5027 18.1936 16.5952 18.2374C16.8303 17.4468 17.4487 16.8284 18.2393 16.5933C18.1956 16.5008 18.1544 16.4095 18.1048 16.3106C17.2081 14.5215 13.6253 12.7298 13.6253 12.7298Z" fill="#FFC900"/>
<path d="M19.6341 19.0002C19.6341 19.3498 19.3503 19.6336 19.0007 19.6336C18.651 19.6336 18.3672 19.3498 18.3672 19.0002C18.3672 18.6505 18.651 18.3667 19.0007 18.3667C19.3503 18.3667 19.6341 18.6505 19.6341 19.0002Z" fill="#1C2042"/>
<path d="M31.0342 31.0331C31.0342 31.383 30.7507 31.6665 30.401 31.6665C30.0511 31.6665 29.7676 31.383 29.7676 31.0331C29.7676 30.6834 30.0511 30.3999 30.401 30.3999C30.7507 30.3999 31.0342 30.6834 31.0342 31.0331Z" fill="#1C2042"/>
<path d="M19 0C8.50645 0 0 8.50645 0 19C0 29.4935 8.50645 38 19 38C29.4935 38 38 29.4935 38 19C37.9881 8.51138 29.4886 0.0118866 19 0ZM33.3132 8.54356L31.2133 9.75339C31.1788 9.77803 31.1469 9.80586 31.1182 9.83688C30.274 8.7236 29.2816 7.73064 28.1686 6.88553C28.1976 6.85509 28.2234 6.82175 28.246 6.78609L29.4564 4.6897C30.9318 5.76935 32.2327 7.06905 33.3132 8.54356ZM34.6631 10.6907L32.4832 11.9483C32.4774 11.9524 32.4742 11.9579 32.4684 11.9611C32.271 11.5845 32.0579 11.2175 31.8294 10.8597C31.8364 10.8559 31.8433 10.8554 31.8497 10.8516L34.0264 9.59509C34.2476 9.95227 34.461 10.317 34.6599 10.6907H34.6631ZM36.6301 17.0999H34.2001C34.1595 17.1042 34.1195 17.1121 34.0803 17.1239C33.9101 15.7364 33.5477 14.379 33.0036 13.0909C33.0413 13.0793 33.0778 13.0642 33.1126 13.046L35.2133 11.8327C35.9567 13.504 36.4344 15.2812 36.6301 17.0999ZM35.2133 26.1673L33.1132 24.9534C33.0772 24.9372 33.0395 24.9247 33.001 24.916C33.5457 23.6256 33.9081 22.2656 34.0777 20.8752C34.1177 20.8876 34.1586 20.8958 34.2001 20.9001H36.6301C36.4344 22.7188 35.9567 24.496 35.2133 26.1673ZM34.0232 28.4049L31.8465 27.1484C31.8401 27.1446 31.8326 27.1452 31.8256 27.1414C32.0535 26.784 32.2669 26.4164 32.4652 26.0389C32.471 26.0421 32.4742 26.0476 32.48 26.0517L34.6599 27.3093C34.461 27.683 34.2476 28.0477 34.0232 28.4049ZM27.1484 31.8465L28.4049 34.0232C28.0477 34.2476 27.683 34.461 27.3093 34.6599L26.0517 32.48C26.0476 32.4742 26.0421 32.471 26.0389 32.4652C26.4158 32.2678 26.7834 32.0544 27.1414 31.8256C27.1452 31.8326 27.1446 31.8401 27.1484 31.8465ZM24.9166 33.001C24.9253 33.0395 24.9378 33.0772 24.954 33.1132L26.1673 35.2133C24.496 35.9567 22.7188 36.4344 20.9001 36.6301V34.2001C20.8958 34.1595 20.8879 34.1195 20.8761 34.0803C22.2665 33.9099 23.6262 33.5466 24.9166 33.001ZM19 32.9334C11.3047 32.9334 5.06659 26.6953 5.06659 19C5.06659 11.3047 11.3047 5.06659 19 5.06659C26.6953 5.06659 32.9334 11.3047 32.9334 19C32.9247 26.6915 26.6915 32.9247 19 32.9334ZM17.0999 36.6301C15.2812 36.4344 13.504 35.9567 11.8327 35.2133L13.0466 33.1132C13.0628 33.0772 13.0753 33.0395 13.084 33.001C14.3744 33.5457 15.7344 33.9081 17.1248 34.0777C17.1124 34.1177 17.1042 34.1586 17.0999 34.2001V36.6301ZM9.59509 34.0232L10.8516 31.8465C10.8554 31.8401 10.8516 31.8326 10.8586 31.8256C11.2166 32.0535 11.5842 32.2669 11.9611 32.4652C11.9611 32.471 11.9524 32.4742 11.9483 32.48L10.6907 34.6599C10.317 34.461 9.95227 34.2476 9.59509 34.0232ZM3.34013 27.3093L5.52002 26.0517C5.52582 26.0476 5.52901 26.0421 5.53481 26.0389C5.73224 26.4164 5.94562 26.784 6.17436 27.1414C6.1674 27.1452 6.15987 27.1446 6.15349 27.1484L3.97679 28.4049C3.7524 28.0477 3.53902 27.683 3.34013 27.3093ZM1.36986 20.9001H3.79994C3.84053 20.8958 3.88054 20.8879 3.91968 20.8761C4.08957 22.2662 4.45197 23.6262 4.99643 24.9166C4.95787 24.9253 4.92018 24.9378 4.88423 24.954L2.78668 26.1673C2.04333 24.496 1.56555 22.7188 1.36986 20.9001ZM2.78668 11.8327L4.88684 13.0466C4.92163 13.0648 4.95816 13.0799 4.99585 13.0915C4.45168 14.3796 4.08928 15.737 3.9191 17.1248C3.88025 17.1126 3.84053 17.1042 3.79994 17.0999H1.36986C1.56555 15.2812 2.04333 13.504 2.78668 11.8327ZM3.97679 9.59509L6.15349 10.8516C6.15987 10.8554 6.16682 10.8559 6.17378 10.8597C5.94562 11.2169 5.73282 11.5842 5.53481 11.9611C5.52901 11.9611 5.52582 11.9524 5.52002 11.9483L3.34013 10.6907C3.53902 10.317 3.7524 9.95227 3.97679 9.59509ZM3.79994 18.3665H3.81647C3.80748 18.5782 3.79994 18.7898 3.79994 19C3.79994 19.2102 3.80748 19.425 3.81647 19.6335C3.81067 19.6335 3.80574 19.6335 3.79994 19.6335H1.28259C1.27563 19.4224 1.26665 19.2122 1.26665 19C1.26665 18.7878 1.27563 18.5776 1.28259 18.3665H3.79994ZM10.8516 6.15349L9.59509 3.97679C9.95227 3.7524 10.317 3.53902 10.6907 3.34332L11.9483 5.52321C11.9483 5.52901 11.9568 5.53278 11.9605 5.53857C11.5831 5.73601 11.2157 5.9491 10.8586 6.17755C10.8548 6.1674 10.8554 6.15987 10.8516 6.15349ZM13.0834 4.99904C13.0747 4.96048 13.0622 4.92279 13.046 4.88684L11.8327 2.78668C13.504 2.04333 15.2812 1.56555 17.0999 1.36986V3.79994C17.1042 3.84053 17.1121 3.88054 17.1239 3.91968C15.7335 4.09015 14.3738 4.45341 13.0834 4.99904ZM20.9001 1.36986C22.7188 1.56555 24.496 2.04333 26.1673 2.78668L24.9534 4.88684C24.9372 4.92279 24.9247 4.96048 24.916 4.99904C23.6256 4.45428 22.2656 4.09189 20.8752 3.92229C20.8876 3.88228 20.8958 3.8414 20.9001 3.79994V1.36986ZM28.4049 3.97679L27.1484 6.15349C27.1446 6.15987 27.1452 6.1674 27.1414 6.17436C26.7843 5.94649 26.4169 5.7334 26.0395 5.53539C26.0432 5.52959 26.0485 5.52582 26.0517 5.52002L27.3093 3.34013C27.683 3.53902 28.0477 3.7524 28.4049 3.97679ZM34.2001 19.6335C34.1943 19.6335 34.1893 19.6335 34.1835 19.6335C34.1925 19.4218 34.2001 19.2102 34.2001 19C34.2001 18.7898 34.1925 18.575 34.1835 18.3665H34.2001H36.7174C36.7244 18.5776 36.7334 18.7878 36.7334 19C36.7334 19.2122 36.7244 19.4224 36.7174 19.6335H34.2001ZM19.6335 1.28259V3.79994V3.81647C19.425 3.80748 19.2134 3.79994 19 3.79994C18.7866 3.79994 18.575 3.80748 18.3665 3.81647C18.3665 3.81067 18.3665 3.80574 18.3665 3.79994V1.28259C18.5776 1.27563 18.7878 1.26665 19 1.26665C19.2122 1.26665 19.4224 1.27563 19.6335 1.28259ZM8.54356 4.6897L9.75339 6.78667C9.776 6.82233 9.8018 6.85567 9.83051 6.88611C8.7178 7.73122 7.72542 8.72418 6.88118 9.83746C6.85248 9.80673 6.82059 9.77861 6.78609 9.75397L4.6897 8.54356C5.76964 7.06934 7.06934 5.76964 8.54356 4.6897ZM4.6897 29.4564L6.78667 28.2466C6.82117 28.222 6.85306 28.1941 6.88176 28.1631C7.72745 29.2787 8.72215 30.2734 9.83746 31.1194C9.80644 31.1478 9.77832 31.1794 9.75397 31.2139L8.54356 33.3132C7.06905 32.2327 5.76935 30.9318 4.6897 29.4564ZM18.3665 36.7174V34.2001C18.3665 34.1943 18.3665 34.1893 18.3665 34.1835C18.5782 34.1925 18.7898 34.2001 19 34.2001C19.2102 34.2001 19.425 34.1925 19.6335 34.1835V34.2001V36.7174C19.4224 36.7244 19.2122 36.7334 19 36.7334C18.7878 36.7334 18.5776 36.7244 18.3665 36.7174ZM29.4564 33.3132L28.2466 31.2133C28.222 31.1788 28.1938 31.1472 28.1625 31.1188C29.2784 30.2731 30.2731 29.2784 31.1188 28.1625C31.1475 28.1933 31.1794 28.2214 31.2139 28.246L33.3132 29.4564C32.233 30.9321 30.9321 32.233 29.4564 33.3132Z" fill="#1C2042"/>
<path d="M35.5832 30.653C34.2397 32.5624 32.5773 34.226 30.6691 35.5709C30.3832 35.7724 30.3145 36.1675 30.516 36.4534C30.7175 36.7395 31.1126 36.808 31.3985 36.6065C33.4256 35.1783 35.1912 33.4113 36.6179 31.3833C36.7518 31.1986 36.7759 30.956 36.6811 30.7487C36.5863 30.5411 36.3871 30.4005 36.1598 30.3808C35.9325 30.3611 35.7122 30.4652 35.5832 30.653Z" fill="#1C2042"/>
<path d="M6.60198 1.39339C4.57488 2.82153 2.80928 4.58857 1.3826 6.61654C1.18633 6.90211 1.2562 7.29262 1.53945 7.49267C1.8227 7.69242 2.21408 7.62748 2.41732 7.34684C3.76079 5.43745 5.42318 3.7739 7.33141 2.42898C7.61727 2.22749 7.68598 1.83233 7.48449 1.54647C7.28299 1.26032 6.88784 1.1919 6.60198 1.39339Z" fill="#1C2042"/>
<path d="M29.301 15.793C29.4584 15.7335 29.5857 15.6144 29.655 15.461C29.724 15.3079 29.7298 15.1337 29.6703 14.9765C29.1012 13.4655 28.2161 12.0936 27.0735 10.9528H27.0698L27.0611 10.9415C26.3082 10.2251 25.1259 10.2251 24.373 10.9415C24.0158 11.2975 23.8152 11.7817 23.8163 12.2861V12.3076C22.9297 12.7781 20.3414 14.25 19.4148 15.8791C19.2777 15.8547 19.1394 15.8393 19.0005 15.8333C18.8605 15.8382 18.7207 15.8524 18.5824 15.8759C17.6553 14.2468 15.0701 12.7723 14.1809 12.3044C14.1809 12.2968 14.1809 12.2899 14.1809 12.2829C14.1821 11.7785 13.9815 11.2946 13.624 10.9389C13.513 10.8316 13.3886 10.7394 13.2538 10.664C13.9267 10.1944 14.6546 9.80878 15.4215 9.51596C15.6366 9.43855 15.7932 9.25098 15.8314 9.02571C15.8697 8.80045 15.7833 8.57199 15.6059 8.4279C15.4284 8.28411 15.1869 8.247 14.9744 8.33078C13.4634 8.89989 12.0918 9.7853 10.951 10.9276V10.9319L10.9399 10.9403C10.3958 11.4836 10.2328 12.3015 10.5271 13.0118C10.8214 13.7224 11.5148 14.1854 12.284 14.1848H12.3055C12.776 15.0714 14.2479 17.66 15.8769 18.5863C15.8535 18.7231 15.839 18.8614 15.8337 19C15.8387 19.14 15.8529 19.2798 15.8764 19.4181C14.2372 20.351 12.7566 22.9646 12.2953 23.8373C11.79 23.8283 11.3018 24.0214 10.9394 24.3739C10.8324 24.4841 10.739 24.607 10.6613 24.7398C10.1931 24.0681 9.8084 23.3415 9.51645 22.5764C9.43904 22.3613 9.25147 22.2048 9.0262 22.1665C8.80094 22.1285 8.57248 22.2146 8.42839 22.392C8.28459 22.5698 8.24748 22.811 8.33127 23.0235C8.90038 24.5345 9.78578 25.9064 10.9281 27.0472H10.9318L10.9408 27.0586C11.4841 27.6027 12.302 27.7657 13.0123 27.4714C13.7229 27.1771 14.1859 26.4836 14.1853 25.7145C14.1853 25.7075 14.1853 25.7006 14.1853 25.693C15.0718 25.2225 17.6605 23.7506 18.5868 22.1218C18.7236 22.1459 18.8619 22.161 19.0005 22.1668C19.1405 22.1619 19.2803 22.1476 19.4186 22.1242C20.3457 23.7532 22.9309 25.2277 23.8201 25.6957V25.7171C23.8189 26.2216 24.0195 26.7054 24.377 27.0612C24.4872 27.1681 24.6101 27.2615 24.7429 27.3392C24.0712 27.8074 23.3446 28.1921 22.5795 28.4841C22.2577 28.6113 22.0974 28.9732 22.2195 29.297C22.3415 29.6205 22.701 29.7864 23.0266 29.6693C24.5376 29.1001 25.9092 28.2147 27.0501 27.0725V27.0687L27.0616 27.0597C27.6134 26.5202 27.7795 25.698 27.4803 24.9865C27.1811 24.2751 26.4772 23.8184 25.7057 23.8355C25.2444 22.962 23.7633 20.3484 22.1247 19.416C22.1481 19.2786 22.1623 19.1395 22.1673 19C22.1623 18.86 22.1481 18.7202 22.1247 18.582C23.7537 17.6548 25.2282 15.0696 25.6961 14.1804H25.7176C26.222 14.1816 26.7059 13.981 27.0616 13.6235C27.1686 13.5133 27.262 13.3904 27.3397 13.2576C27.8079 13.9294 28.1926 14.6559 28.4846 15.421C28.5776 15.6674 28.8133 15.8306 29.0769 15.8309C29.1531 15.8315 29.2291 15.8188 29.301 15.793ZM11.6499 12.2829C11.6499 11.933 11.9335 11.6495 12.2834 11.6495C12.4513 11.6495 12.6125 11.7164 12.7311 11.835C12.8505 11.9533 12.9175 12.1142 12.9166 12.2824C12.9241 12.5584 12.7406 12.8033 12.4733 12.8738C12.2507 12.9457 12.0065 12.8906 11.8364 12.73C11.7175 12.6114 11.6505 12.4508 11.6499 12.2829ZM16.2973 17.3585C15.2209 16.6099 14.0699 14.7724 13.5045 13.7372C13.5475 13.7021 13.5875 13.6647 13.6266 13.6261C13.666 13.5876 13.7026 13.547 13.7376 13.5041C14.7724 14.0694 16.609 15.2178 17.359 16.2968C17.3381 16.3096 17.319 16.3255 17.2955 16.3389C17.2535 16.3667 17.2111 16.3957 17.1688 16.4261C16.876 16.623 16.6241 16.8749 16.4272 17.1677C16.3968 17.2109 16.364 17.2533 16.3385 17.2976C16.326 17.3185 16.3101 17.3376 16.2973 17.3585ZM12.7305 26.165C12.4803 26.4051 12.0851 26.4051 11.8349 26.165C11.5876 25.9177 11.5876 25.5168 11.8349 25.2695C11.9529 25.15 12.1141 25.0831 12.282 25.0839C12.6229 25.1045 12.8946 25.3765 12.9154 25.7171C12.9163 25.8853 12.8496 26.0465 12.7305 26.165ZM17.3584 21.7032C16.6096 22.7797 14.7724 23.9306 13.7368 24.496C13.702 24.4531 13.6646 24.4131 13.626 24.3739C13.5875 24.3345 13.5469 24.298 13.5037 24.2629C14.0693 23.2282 15.2177 21.3915 16.2967 20.6415C16.3095 20.6624 16.3254 20.6815 16.3385 20.705C16.3666 20.7471 16.3956 20.7894 16.426 20.8317C16.6226 21.1245 16.8745 21.3765 17.1677 21.5733C17.2108 21.6038 17.2532 21.6333 17.2981 21.662C17.319 21.6745 17.3381 21.6904 17.359 21.7032H17.3584ZM18.4349 20.805L18.4285 20.8013C18.2873 20.756 18.1516 20.6957 18.0232 20.6212C18.0145 20.6163 18.0049 20.6125 17.9968 20.6073C17.8779 20.5363 17.7684 20.4513 17.6698 20.3542C17.6596 20.3447 17.6509 20.3345 17.6408 20.3244C17.5457 20.2269 17.4625 20.1191 17.3923 20.0026C17.3868 19.9939 17.3825 19.9843 17.3773 19.9753C17.303 19.8474 17.243 19.7118 17.1981 19.5706L17.1937 19.5604C17.134 19.3795 17.1027 19.1905 17.1004 19C17.1033 18.8081 17.1355 18.6179 17.1955 18.4358L17.1993 18.4295C17.2442 18.2883 17.3045 18.1523 17.3784 18.0242C17.3842 18.0152 17.388 18.0056 17.3932 17.9975C17.4642 17.8789 17.5492 17.769 17.6463 17.6707C17.6559 17.6606 17.666 17.6516 17.6762 17.6415C17.7736 17.5467 17.8814 17.4632 17.998 17.3933C18.0067 17.3875 18.0162 17.3832 18.0252 17.3779C18.1531 17.3037 18.2888 17.2437 18.4299 17.1988L18.4401 17.1938C18.8045 17.068 19.2005 17.068 19.5647 17.1938L19.5711 17.1976C19.7123 17.2425 19.8482 17.3028 19.9764 17.3774C19.9854 17.3826 19.9949 17.3863 20.003 17.3913C20.1216 17.4626 20.2315 17.5475 20.3298 17.6447C20.3399 17.6542 20.3489 17.6644 20.3591 17.6745C20.4539 17.7716 20.5374 17.8798 20.6072 17.9963C20.613 18.005 20.6174 18.0146 20.6226 18.0233C20.6968 18.1514 20.7568 18.2871 20.8018 18.428L20.8067 18.4382C20.9325 18.8026 20.9325 19.1986 20.8067 19.563L20.8029 19.5694C20.7583 19.7106 20.698 19.8466 20.6232 19.9747C20.618 19.9837 20.6142 19.993 20.6093 20.0014C20.5379 20.12 20.453 20.2296 20.3559 20.3281C20.3463 20.3383 20.3362 20.3473 20.326 20.3571C20.2289 20.4522 20.1207 20.5354 20.0042 20.6056C19.9955 20.6111 19.9859 20.6157 19.9772 20.6207C19.8491 20.6949 19.7134 20.7552 19.5725 20.7998L19.5624 20.805C19.1979 20.9309 18.8019 20.9309 18.4375 20.805H18.4349ZM26.3516 25.7171C26.3525 25.8853 26.2855 26.0467 26.1661 26.165C25.9156 26.4045 25.521 26.4045 25.2705 26.165C25.1511 26.0465 25.0844 25.8853 25.085 25.7171C25.1059 25.3765 25.3775 25.1045 25.7182 25.0839C26.0681 25.0839 26.3516 25.3675 26.3516 25.7171ZM21.7043 20.6415C22.7807 21.3901 23.9317 23.2276 24.4973 24.2629C24.4541 24.298 24.4141 24.3354 24.375 24.3739C24.3358 24.4125 24.299 24.4531 24.2642 24.496C23.2292 23.9306 21.3926 22.7823 20.6426 21.7032C20.6638 21.6904 20.6826 21.6745 20.7061 21.6612C20.7484 21.6333 20.7905 21.6043 20.8328 21.5739C21.1256 21.377 21.3775 21.1251 21.5744 20.8323C21.6048 20.7891 21.6344 20.7468 21.6631 20.7056C21.675 20.6815 21.6909 20.6624 21.7037 20.6415H21.7043ZM24.4973 13.7383C23.9317 14.773 22.7833 16.6099 21.7043 17.3597C21.6915 17.3388 21.6756 17.3197 21.6625 17.2965C21.6344 17.2541 21.6054 17.2118 21.575 17.1698C21.3784 16.8767 21.1265 16.6247 20.8334 16.4282C20.7902 16.3977 20.7478 16.3647 20.7067 16.3394C20.6858 16.3267 20.6669 16.3107 20.6435 16.2983C21.392 15.2215 23.2292 14.0708 24.2648 13.5052C24.2996 13.5484 24.337 13.5881 24.3756 13.6276C24.4141 13.6667 24.4536 13.7021 24.4965 13.7372L24.4973 13.7383ZM26.1655 12.73C25.995 12.8906 25.7509 12.9457 25.5283 12.8738C25.2665 12.7833 25.0963 12.5299 25.1117 12.2534C25.127 11.9768 25.3242 11.744 25.5944 11.6828C25.8646 11.6219 26.1426 11.7477 26.2751 11.991C26.4079 12.2342 26.3629 12.5357 26.1655 12.73Z" fill="#1C2042"/>
<path d="M11.1632 22.167C11.3655 22.1667 11.556 22.0698 11.6752 21.906C11.7943 21.7422 11.8277 21.5312 11.7653 21.3384C11.5218 20.5831 11.3983 19.794 11.3995 19.0002C11.3995 18.8025 11.407 18.6088 11.4215 18.4157C11.4409 18.189 11.3371 17.9695 11.1498 17.8402C10.9626 17.7112 10.7205 17.6927 10.5155 17.7912C10.3105 17.8901 10.1743 18.0913 10.1586 18.318C10.1415 18.543 10.1328 18.7709 10.1328 19.0002C10.1319 19.9265 10.2763 20.847 10.5607 21.7286C10.6454 21.9898 10.8886 22.1667 11.1632 22.167Z" fill="#1C2042"/>
<path d="M21.3382 26.234C20.3951 26.5355 19.4027 26.6523 18.4155 26.5778C18.1888 26.5584 17.9694 26.6622 17.8401 26.8494C17.711 27.0367 17.6925 27.2788 17.7911 27.4838C17.8899 27.6888 18.0911 27.825 18.3178 27.8407C18.5428 27.8578 18.7707 27.8665 19 27.8665C19.9263 27.8673 20.8468 27.723 21.7284 27.4386C22.0433 27.3182 22.2088 26.9721 22.1047 26.6514C22.0009 26.3308 21.6638 26.1478 21.3382 26.2351V26.234Z" fill="#1C2042"/>
<path d="M26.6411 15.8642C26.3085 15.9721 26.1265 16.3289 26.234 16.6618C26.4776 17.417 26.6011 18.2062 26.5999 19C26.5999 19.1977 26.5924 19.3913 26.5779 19.5844C26.5645 19.7523 26.6182 19.9184 26.7275 20.0466C26.8371 20.1744 26.9928 20.2536 27.1606 20.2666H27.2099C27.5416 20.2675 27.8179 20.0126 27.8434 19.6821C27.8605 19.4572 27.8692 19.2293 27.8692 19C27.87 18.0737 27.7254 17.1532 27.441 16.2715C27.3894 16.1112 27.2757 15.9781 27.1258 15.9019C26.9756 15.8254 26.8014 15.8117 26.6411 15.8642Z" fill="#1C2042"/>
<path d="M16.4667 11.797C16.5328 11.797 16.5986 11.7866 16.6618 11.766C17.6046 11.4639 18.5973 11.347 19.5845 11.4221C19.9315 11.4462 20.233 11.1859 20.2597 10.8391C20.2867 10.4924 20.0286 10.1888 19.6822 10.1593C18.5301 10.0717 17.3718 10.2083 16.2716 10.5614C15.9756 10.6576 15.7932 10.9551 15.8419 11.2624C15.8904 11.57 16.1554 11.7967 16.4667 11.797Z" fill="#1C2042"/>
</g>
<defs>
<clipPath id="clip0_3986_2695">
<rect width="38" height="38" fill="white"/>
</clipPath>
</defs>
</svg>
