<svg width="39" height="38" viewBox="0 0 39 38" fill="none" xmlns="http://www.w3.org/2000/svg">
<g clip-path="url(#clip0_3986_2751)">
<path d="M35.6811 9.72785C35.4083 9.28515 35.0297 8.91753 34.5791 8.65777L21.2917 1.05122C20.3007 0.493996 19.0909 0.493996 18.0997 1.05122L4.81249 8.65777C4.36196 8.91753 3.98332 9.28515 3.71051 9.72785C3.39566 10.2219 3.22867 10.7953 3.22925 11.381V26.619C3.23505 27.7436 3.83808 28.7806 4.81249 29.3422L18.0997 36.9487C19.0909 37.506 20.3007 37.506 21.2917 36.9487L34.5791 29.3422C35.5535 28.7806 36.1566 27.7436 36.1624 26.619V11.381C36.1627 10.7953 35.9957 10.2219 35.6811 9.72785Z" fill="#F95428"/>
<path d="M36.1627 11.3811V26.6192C36.1569 27.7438 35.5539 28.7808 34.5795 29.3424L21.292 36.9489C20.805 37.2232 20.2553 37.3673 19.696 37.3667V19.0002L35.6815 9.72803C35.996 10.222 36.163 10.7955 36.1627 11.3811Z" fill="#F95428"/>
<path d="M19.6957 19.0002V37.3667C19.1367 37.3673 18.587 37.2232 18.0997 36.9489L4.81249 29.3424C3.83808 28.7808 3.23505 27.7438 3.22925 26.6192V11.3811C3.22867 10.7955 3.39566 10.222 3.71051 9.72803L19.6957 19.0002Z" fill="#F95428"/>
<path d="M26.0267 30.3055C25.8991 31.2292 25.2384 31.9908 24.342 32.2474C23.9892 32.3906 23.587 32.337 23.2841 32.1062C22.9814 31.8754 22.8231 31.502 22.8675 31.124C22.9936 30.2009 23.6552 29.4404 24.5522 29.1885C24.9038 29.0418 25.3068 29.0931 25.6104 29.3233C25.9142 29.5532 26.0725 29.9275 26.0267 30.3055Z" fill="#CAD0D7"/>
<path d="M5.76642 25.2392C5.89398 26.1629 6.55441 26.9245 7.45113 27.1811C7.80367 27.3243 8.20578 27.2706 8.50874 27.0399C8.81142 26.8091 8.97 26.4354 8.92535 26.0573C8.79953 25.1342 8.13765 24.3741 7.24065 24.1219C6.88927 23.9754 6.48599 24.0268 6.18245 24.2567C5.87891 24.4869 5.72032 24.8609 5.76642 25.2392Z" fill="#F4F6F8"/>
<path d="M14.0008 30.3055C14.1284 31.2292 14.7888 31.9908 15.6855 32.2474C16.038 32.3906 16.4402 32.337 16.7431 32.1062C17.0458 31.8754 17.2044 31.502 17.1597 31.124C17.0339 30.2009 16.372 29.4404 15.475 29.1885C15.1234 29.0418 14.7204 29.0931 14.4168 29.3233C14.1133 29.5532 13.9547 29.9275 14.0008 30.3055Z" fill="#F4F6F8"/>
<path d="M5.76642 16.3724C5.89398 17.2964 6.55441 18.0577 7.45113 18.3143C7.80367 18.4575 8.20578 18.4039 8.50874 18.1731C8.81142 17.9423 8.97 17.5689 8.92535 17.1908C8.79953 16.2678 8.13765 15.5073 7.24065 15.2554C6.88927 15.1087 6.48599 15.16 6.18245 15.3902C5.87891 15.6201 5.72032 15.9944 5.76642 16.3724Z" fill="#F4F6F8"/>
<path d="M14.0008 21.439C14.1284 22.3627 14.7888 23.124 15.6855 23.3806C16.038 23.5241 16.4402 23.4702 16.7431 23.2394C17.0458 23.0089 17.2044 22.6352 17.1597 22.2572C17.0339 21.3341 16.372 20.5739 15.475 20.3217C15.1234 20.175 14.7204 20.2266 14.4168 20.4565C14.1133 20.6867 13.9547 21.0607 14.0008 21.439Z" fill="#F4F6F8"/>
<path d="M33.626 16.3722C33.4984 17.2961 32.8377 18.0575 31.9413 18.314C31.5887 18.4573 31.1863 18.4036 30.8837 18.1728C30.5807 17.9421 30.4224 17.5687 30.467 17.1906C30.5929 16.2675 31.2547 15.5071 32.1515 15.2551C32.5031 15.1084 32.9064 15.1597 33.2099 15.3899C33.5135 15.6198 33.6721 15.9941 33.626 16.3722Z" fill="#CAD0D7"/>
<path d="M29.8255 23.3387C29.698 24.2624 29.0372 25.024 28.1408 25.2806C27.788 25.4238 27.3859 25.3702 27.0832 25.1394C26.7802 24.9086 26.6219 24.5352 26.6663 24.1572C26.7924 23.2341 27.4543 22.4736 28.351 22.2217C28.7027 22.075 29.1057 22.1263 29.4095 22.3565C29.713 22.5864 29.8716 22.9607 29.8255 23.3387Z" fill="#CAD0D7"/>
<path d="M21.1629 10.823C20.43 11.504 19.3257 11.5933 18.4928 11.039C18.113 10.8169 17.8596 10.4296 17.8074 9.99271C17.7555 9.55609 17.9112 9.12006 18.2281 8.81477C18.9622 8.13173 20.0679 8.03953 20.9052 8.59125C21.283 8.81738 21.534 9.20616 21.5848 9.64365C21.6352 10.0811 21.4792 10.5169 21.1629 10.823Z" fill="white"/>
<path d="M4.50032 29.8934L17.7858 37.4985C18.3656 37.8252 19.0199 37.9975 19.6856 37.998L19.6963 38.0001H19.7059C20.373 37.9992 21.0288 37.8267 21.6098 37.4991L34.8964 29.8891C36.0673 29.2153 36.7913 27.9692 36.7965 26.6185V24.7001C36.7965 24.3502 36.513 24.0667 36.163 24.0667C35.8134 24.0667 35.5298 24.3502 35.5298 24.7001V26.6185C35.5249 27.5167 35.0422 28.3441 34.2632 28.7909L20.9821 36.3965C20.7774 36.5119 20.558 36.5986 20.3298 36.6543V19.3642L35.4031 10.6244C35.4852 10.8693 35.5278 11.1259 35.5298 11.3842V25.6502C35.5298 25.9998 35.8134 26.2834 36.163 26.2834C36.513 26.2834 36.7965 25.9998 36.7965 25.6502V11.3811C36.7945 10.687 36.5993 10.0074 36.2335 9.41774C36.2335 9.41455 36.2335 9.41078 36.2297 9.40759C36.2259 9.4044 36.2196 9.39744 36.2158 9.39106C35.8862 8.86138 35.4316 8.42071 34.892 8.10731L21.6072 0.501629C20.4202 -0.16721 18.9701 -0.16721 17.7832 0.501629L4.49655 8.1105C3.95702 8.42419 3.50301 8.86544 3.17395 9.3957C3.17018 9.40121 3.16467 9.4044 3.16148 9.4102V9.41976C2.79503 10.0086 2.59933 10.6876 2.59644 11.3811V19.3167C2.59644 19.6666 2.87997 19.9501 3.2299 19.9501C3.57954 19.9501 3.86308 19.6666 3.86308 19.3167V11.3811C3.86511 11.1227 3.90773 10.8662 3.98978 10.6212L19.0631 19.3648V36.6549C18.8358 36.5992 18.6172 36.5128 18.4134 36.3977L5.12973 28.792C4.35072 28.3447 3.86801 27.517 3.86308 26.6185V18.3666C3.86308 18.017 3.57954 17.7334 3.2299 17.7334C2.87997 17.7334 2.59644 18.017 2.59644 18.3666V26.6185C2.60165 27.9716 3.32703 29.2194 4.50032 29.8934ZM18.4108 1.60418C19.2081 1.1551 20.1822 1.1551 20.9795 1.60418L34.2632 9.20813C34.4293 9.30496 34.5838 9.42092 34.7236 9.55342L19.6963 18.268L4.67195 9.55255C4.81111 9.42092 4.96477 9.30583 5.12973 9.2087L18.4108 1.60418Z" fill="#1C2042"/>
<path d="M24.3959 28.5746C23.2348 28.895 22.3816 29.8848 22.2357 31.0807C22.1807 31.6344 22.3975 32.1803 22.817 32.5456C23.1345 32.8028 23.5322 32.9399 23.9407 32.9333C24.1292 32.9327 24.3171 32.9086 24.5 32.8616C25.6576 32.5338 26.5059 31.544 26.6532 30.3498C26.7083 29.7952 26.4903 29.2484 26.0687 28.8837C25.5941 28.5158 24.9708 28.4007 24.3959 28.5746ZM25.3973 30.2617C25.2891 30.9122 24.8201 31.4445 24.1883 31.6336C24.0028 31.7002 23.7966 31.677 23.6311 31.5704C23.5276 31.4625 23.4806 31.3123 23.5044 31.1651C23.6111 30.5136 24.0831 29.9819 24.7171 29.7987C24.7969 29.7778 24.8792 29.7671 24.9615 29.7665C25.0923 29.7508 25.2222 29.8007 25.3089 29.8999C25.3955 29.9987 25.4277 30.1344 25.3947 30.2617H25.3973Z" fill="#1C2042"/>
<path d="M7.29511 27.7944C7.47746 27.8419 7.66475 27.8663 7.8532 27.8666C8.26256 27.8744 8.66148 27.7373 8.97981 27.4798C9.39932 27.1142 9.61589 26.5683 9.5611 26.0149C9.41643 24.8198 8.56465 23.8304 7.4047 23.5094C6.82747 23.3326 6.20009 23.4471 5.7226 23.8164C5.30077 24.1812 5.08275 24.7279 5.13812 25.2828C5.28598 26.4779 6.13602 27.4679 7.29511 27.7944ZM6.52741 24.792C6.69411 24.6865 6.90053 24.6656 7.08492 24.7355C7.7181 24.919 8.1895 25.4504 8.29648 26.101C8.3188 26.2488 8.27068 26.3987 8.1666 26.5063C8.00221 26.6115 7.7984 26.6347 7.61431 26.5698C6.97881 26.3825 6.50566 25.8488 6.39636 25.1953C6.37375 25.0477 6.42246 24.8981 6.52741 24.792Z" fill="#1C2042"/>
<path d="M15.5277 32.8611C15.7101 32.9083 15.8974 32.9327 16.0858 32.9333C16.4952 32.9408 16.8941 32.8037 17.2124 32.5462C17.632 32.1806 17.8485 31.635 17.7937 31.0813C17.6491 29.8862 16.7973 28.897 15.6373 28.5758C15.0598 28.3995 14.433 28.5141 13.9552 28.8831C13.5334 29.2475 13.3154 29.7946 13.3705 30.3492C13.5183 31.5443 14.3686 32.5343 15.5277 32.8611ZM14.76 29.8584C14.9267 29.7532 15.1332 29.7323 15.3175 29.8019C15.9507 29.9854 16.4221 30.5168 16.5291 31.1674C16.5523 31.3149 16.5053 31.4648 16.4024 31.5727C16.2377 31.6779 16.0342 31.7011 15.8501 31.6362C15.2132 31.45 14.7389 30.916 14.629 30.2617C14.6064 30.1141 14.6551 29.9645 14.76 29.8584Z" fill="#1C2042"/>
<path d="M7.29515 18.9279C7.4775 18.9751 7.66479 18.9995 7.85324 19C8.2626 19.0076 8.66152 18.8707 8.97985 18.613C9.39936 18.2477 9.61593 17.7018 9.56114 17.1481C9.41647 15.9533 8.56469 14.9641 7.40473 14.6435C6.82751 14.4669 6.20042 14.5811 5.72264 14.9499C5.30023 15.314 5.08221 15.8611 5.13816 16.416C5.28602 17.611 6.13606 18.6011 7.29515 18.9279ZM6.52744 15.9246C6.69473 15.8205 6.90057 15.8002 7.08496 15.8695C7.71813 16.0527 8.18954 16.5839 8.29652 17.2344C8.31942 17.3817 8.27275 17.5316 8.16982 17.6397C8.00515 17.745 7.80105 17.7682 7.61695 17.703C6.98059 17.5162 6.50686 16.9825 6.3964 16.3287C6.37379 16.1809 6.4225 16.031 6.52744 15.9246Z" fill="#1C2042"/>
<path d="M15.5277 23.9946C15.7101 24.0422 15.8974 24.0663 16.0858 24.0668C16.4952 24.0747 16.8941 23.9375 17.2124 23.6801C17.632 23.3145 17.8485 22.7686 17.7937 22.2151C17.6491 21.0201 16.7973 20.0306 15.6373 19.7097C15.0601 19.5325 14.4327 19.6471 13.9552 20.0167C13.5334 20.3814 13.3154 20.9282 13.3705 21.4828C13.5183 22.6781 14.3686 23.6679 15.5277 23.9946ZM14.76 20.992C14.9267 20.887 15.1332 20.8662 15.3175 20.9357C15.9507 21.1192 16.4221 21.6504 16.5291 22.3012C16.5523 22.4485 16.5053 22.5984 16.4024 22.7065C16.2377 22.8115 16.0342 22.835 15.8501 22.7697C15.2132 22.5836 14.7389 22.0499 14.629 21.3955C14.6064 21.248 14.6551 21.0981 14.76 20.992Z" fill="#1C2042"/>
<path d="M32.1012 18.9265C33.2588 18.5986 34.1071 17.6092 34.2544 16.4153C34.3098 15.8607 34.0918 15.3136 33.6699 14.9492C33.1936 14.5804 32.568 14.4656 31.9916 14.6413C30.8308 14.9628 29.9781 15.952 29.8314 17.1473C29.7764 17.7011 29.9929 18.247 30.4127 18.6123C30.7308 18.87 31.1294 19.0074 31.5388 18.9999C31.7287 18.999 31.9177 18.9744 32.1012 18.9265ZM31.2265 17.6396C31.123 17.5318 31.0764 17.3816 31.0998 17.2343C31.2068 16.5829 31.6791 16.0511 32.3134 15.8679C32.394 15.8459 32.4769 15.8343 32.5604 15.8331C32.6912 15.8175 32.8211 15.8673 32.9078 15.9665C32.9942 16.0656 33.026 16.201 32.993 16.3286C32.8846 16.9789 32.4158 17.5112 31.784 17.7002C31.5988 17.7669 31.3932 17.7445 31.2265 17.6396Z" fill="#1C2042"/>
<path d="M28.3026 25.8941C29.4602 25.5659 30.3085 24.5764 30.4558 23.3823C30.5109 22.8277 30.2929 22.2806 29.8713 21.9162C29.395 21.5471 28.7691 21.4323 28.193 21.6083C27.0316 21.9286 26.1784 22.9184 26.0325 24.1143C25.9777 24.668 26.1943 25.214 26.6141 25.5793C26.9322 25.837 27.3314 25.9744 27.7407 25.9669C27.9303 25.966 28.1191 25.9417 28.3026 25.8941ZM27.4285 24.6063C27.325 24.4987 27.278 24.3486 27.3018 24.201C27.4085 23.5498 27.8808 23.0181 28.5145 22.8349C28.5951 22.8129 28.678 22.8013 28.7615 22.8001C28.8923 22.7845 29.0225 22.8343 29.1091 22.9335C29.1958 23.0326 29.2277 23.168 29.195 23.2956C29.0865 23.9459 28.6174 24.4781 27.9857 24.6672C27.8007 24.7347 27.5946 24.7124 27.4285 24.6063Z" fill="#1C2042"/>
<path d="M18.1349 11.5608C18.597 11.8734 19.1426 12.0389 19.7007 12.036C20.4154 12.045 21.1042 11.7684 21.6145 11.2677C22.0528 10.8407 22.2758 10.2388 22.2213 9.6294C22.1491 8.99245 21.798 8.42073 21.2631 8.06819C20.1747 7.3405 18.7278 7.46488 17.7797 8.36768C17.3402 8.79067 17.1164 9.39022 17.1709 9.99788C17.2434 10.6366 17.5968 11.2097 18.1349 11.5608ZM18.6834 9.25946C18.9588 8.9997 19.3253 8.85851 19.7036 8.86663C20.0034 8.86315 20.2971 8.94925 20.5473 9.11363C20.7725 9.25279 20.9242 9.48502 20.9604 9.7471C20.9778 9.98339 20.8868 10.215 20.7125 10.3759C20.1947 10.8386 19.4305 10.8949 18.8507 10.5128C18.6231 10.3739 18.47 10.1399 18.4338 9.87554C18.4181 9.64273 18.51 9.41573 18.6834 9.25946Z" fill="#1C2042"/>
</g>
<defs>
<clipPath id="clip0_3986_2751">
<rect width="38" height="38" fill="white" transform="translate(0.666748)"/>
</clipPath>
</defs>
</svg>
