<svg width="20" height="21" viewBox="0 0 20 21" fill="none" xmlns="http://www.w3.org/2000/svg">
<path d="M18 8.60002C17.9389 8.41554 17.8293 8.25089 17.6827 8.12334C17.5361 7.99578 17.3578 7.91001 17.1667 7.87502L12.9 7.25836L10.9583 3.38336C10.8684 3.20645 10.7313 3.05788 10.5622 2.95411C10.393 2.85034 10.1984 2.79541 10 2.79541C9.80157 2.79541 9.607 2.85034 9.43785 2.95411C9.2687 3.05788 9.13158 3.20645 9.04167 3.38336L7.13334 7.25836L2.86667 7.87502C2.67522 7.9072 2.49618 7.99102 2.34885 8.11744C2.20152 8.24387 2.09148 8.40811 2.03061 8.59245C1.96973 8.7768 1.96032 8.97427 2.00339 9.16357C2.04645 9.35287 2.14037 9.52682 2.27501 9.66669L5.35834 12.675L4.63334 16.925C4.59123 17.1261 4.60904 17.3352 4.68459 17.5263C4.76014 17.7174 4.89009 17.8821 5.05834 18C5.23807 18.1364 5.45776 18.2096 5.68334 18.2084C5.85764 18.2075 6.02916 18.1646 6.18334 18.0834L10 16.075L13.8167 18.0834C13.993 18.1767 14.1919 18.2187 14.3908 18.2046C14.5898 18.1906 14.7808 18.121 14.9422 18.0039C15.1037 17.8867 15.229 17.7266 15.304 17.5418C15.3791 17.357 15.4008 17.1549 15.3667 16.9584L14.6417 12.7084L17.725 9.66669C17.862 9.52973 17.9598 9.35852 18.0082 9.17092C18.0566 8.98331 18.0537 8.78616 18 8.60002Z" fill="#FBC02D"/>
</svg>
