<svg width="24" height="24" viewBox="0 0 24 24" fill="none" xmlns="http://www.w3.org/2000/svg">
<g clip-path="url(#clip0_3986_2808)">
<path d="M11.9994 23.0005C18.3719 23.0005 23.5379 18.0412 23.5379 11.9236C23.5379 5.80599 18.3719 0.84668 11.9994 0.84668C5.62688 0.84668 0.460938 5.80599 0.460938 11.9236C0.460938 18.0412 5.62688 23.0005 11.9994 23.0005Z" fill="#FF5368"/>
<path d="M19.1836 3.61572C18.7052 4.12995 18.7238 4.91742 19.24 5.41013C21.1271 7.21148 22.1664 9.60641 22.1664 12.1538C22.1664 14.7013 21.1271 17.0963 19.24 18.8976C17.3529 20.6989 14.8439 21.6909 12.1751 21.6909C9.50642 21.6909 6.99741 20.6989 5.11033 18.8976C4.59421 18.4049 3.76917 18.3871 3.23047 18.8438C5.31065 21.3745 8.54397 23.0003 12.1751 23.0003C18.4508 23.0003 23.5382 18.1442 23.5382 12.1538C23.5382 8.68768 21.8349 5.6014 19.1836 3.61572Z" fill="#C5324F"/>
<path d="M7.71484 1.65032L12.0019 12L16.289 1.65032C14.9684 1.10269 13.5206 0.799805 12.0019 0.799805C10.4832 0.799805 9.03546 1.10269 7.71484 1.65032Z" fill="#FFF9EB"/>
<path d="M0.800781 11.9999C0.800781 13.5185 1.10367 14.9663 1.65129 16.2868L12.0012 11.9999L1.65129 7.71289C1.10367 9.0335 0.800781 10.4813 0.800781 11.9999Z" fill="#FFF9EB"/>
<path d="M12 11.9998L22.3499 16.2868C22.8975 14.9662 23.2004 13.5185 23.2004 11.9998C23.2004 10.4812 22.8975 9.03346 22.3499 7.71289L12 11.9998Z" fill="#FFF9EB"/>
<path d="M12.0019 23.2004C13.5206 23.2004 14.9684 22.8975 16.289 22.3499L12.0019 12.0002L7.71484 22.3499C9.03546 22.8976 10.4832 23.2004 12.0019 23.2004Z" fill="#FFF9EB"/>
<path d="M22.3493 7.71265L21.1034 8.22872C22.0965 10.6263 22.0972 13.3709 21.1034 15.7702L22.3497 16.2864C23.5386 13.3143 23.4262 10.3043 22.3493 7.71265Z" fill="#D3CDBF"/>
<path d="M16.2867 22.3489L15.7705 21.1025C13.3727 22.0957 10.6281 22.0963 8.22881 21.1025L7.71274 22.3485C10.3802 23.4544 13.4804 23.5126 16.2867 22.3489Z" fill="#D3CDBF"/>
<path d="M12.0005 20.2311C7.67406 20.2311 4.1543 16.5043 4.1543 11.9234C4.1543 7.34252 7.67406 3.61572 12.0005 3.61572C16.3268 3.61572 19.8466 7.34252 19.8466 11.9234C19.8466 16.5043 16.3268 20.2311 12.0005 20.2311Z" fill="#FF5368"/>
<path d="M16.4288 5.46191C15.981 5.99217 16.0066 6.78591 16.5063 7.28561C19.1548 9.93414 19.1548 14.2436 16.5063 16.8921C15.2258 18.1726 13.5199 18.8778 11.7031 18.8778C9.88622 18.8778 8.18038 18.1726 6.89987 16.892C6.40022 16.3924 5.60641 16.3667 5.07617 16.8145C6.55434 18.8814 8.97396 20.2311 11.7031 20.2311C16.1928 20.2311 19.8454 16.5785 19.8454 12.0888C19.8454 9.35971 18.4957 6.94007 16.4288 5.46191Z" fill="#C5324F"/>
<path d="M16.2963 9.27905C15.1385 7.91096 13.1916 7.88226 12.0008 9.1929C10.8099 7.88222 8.86299 7.91092 7.70525 9.27905C6.60245 10.5822 6.68718 12.6339 7.8313 13.8931L10.4183 16.7403C11.2922 17.7022 12.7093 17.7022 13.5832 16.7403L16.1702 13.8931C17.3143 12.6339 17.399 10.5822 16.2963 9.27905Z" fill="#FFF9EB"/>
<path d="M16.311 9.20942C15.8888 8.69637 15.3595 8.37043 14.8012 8.23096C15.0568 9.35719 14.7773 10.613 14.0036 11.4887L11.4668 14.3601C10.7349 15.1886 9.61488 15.3089 8.76953 14.7224L10.5469 16.7341C11.4039 17.7043 12.7935 17.7043 13.6505 16.7341L16.1874 13.8627C17.3093 12.5928 17.3924 10.5236 16.311 9.20942Z" fill="#D3CDBF"/>
<path d="M14.3443 7.30811H14.3387C13.865 7.30811 13.4022 7.39946 12.963 7.57976C12.5102 7.76554 12.1042 8.03766 11.7563 8.38811C11.6995 8.43423 11.6276 8.45963 11.5542 8.45963H11.523C11.3271 8.45963 11.1681 8.61453 11.1681 8.80548C11.1681 8.99592 11.3271 9.15132 11.523 9.15132H11.5547C11.8055 9.15132 12.0473 9.06141 12.2357 8.89904L12.2381 8.89674C12.2409 8.89443 12.2432 8.89213 12.2456 8.88987C12.2494 8.88618 12.2532 8.88295 12.2565 8.87926C12.8154 8.31253 13.5555 8.00035 14.341 7.99984C15.173 8.00035 15.9438 8.34112 16.5117 8.95903C17.0133 9.50593 17.2897 10.2276 17.2902 10.9908C17.2902 11.8213 16.9584 12.6339 16.3802 13.2199L13.5034 16.1394C13.1031 16.5457 12.5688 16.7693 12 16.7703C11.4307 16.7693 10.8969 16.5457 10.4966 16.1394L7.61984 13.2199C7.04109 12.6334 6.70936 11.8208 6.70984 10.9908C6.70984 10.2276 6.98667 9.50593 7.48829 8.95903C8.05568 8.34108 8.82656 8.0003 9.65896 7.99984C10.0167 7.99984 10.3679 8.06486 10.7019 8.19398C10.7436 8.2097 10.7876 8.218 10.8321 8.218C10.9788 8.218 11.1084 8.13223 11.1624 7.99943C11.2343 7.82189 11.1449 7.62084 10.9627 7.55075C10.5458 7.38982 10.1071 7.30815 9.65896 7.30815H9.65565C8.64939 7.30815 7.67062 7.72169 6.95875 8.49791C6.34025 9.17254 5.99953 10.0574 6 10.9908C6 11.9719 6.37441 12.9543 7.10782 13.6991L9.98454 16.6185C10.5331 17.1765 11.2637 17.462 11.9986 17.462H12.0019C12.7471 17.462 13.4748 17.1684 14.0155 16.6185L16.8922 13.6991C17.6209 12.96 18 11.9776 18 10.9908C18.0005 10.0574 17.6598 9.17254 17.0407 8.49791C16.3296 7.72238 15.3514 7.30811 14.3443 7.30811Z" fill="#1C2042"/>
<path d="M20.1584 4.22619C17.979 2.04691 15.0814 0.84668 11.9994 0.84668C8.91737 0.84668 6.01982 2.04691 3.84049 4.22619C1.66116 6.40556 0.460938 9.30311 0.460938 12.3851C0.460938 15.4672 1.66116 18.3647 3.84049 20.5441C6.01982 22.7234 8.91737 23.9236 11.9994 23.9236C15.0814 23.9236 17.979 22.7234 20.1584 20.5441C22.3376 18.3647 23.5379 15.4672 23.5379 12.3851C23.5379 9.30311 22.3376 6.40556 20.1584 4.22619ZM22.1599 16.2279L19.9718 15.3216C20.3113 14.4027 20.4955 13.4119 20.4955 12.3854C20.4955 11.3741 20.3195 10.3879 19.9719 9.44874L22.1599 8.54243C22.6134 9.73761 22.8618 11.0329 22.8618 12.3851C22.8618 13.7374 22.6134 15.0327 22.1599 16.2279ZM21.9003 7.91818L19.4067 8.9511C19.3271 8.98404 19.2594 9.04701 19.2236 9.13431C19.1893 9.2177 19.1893 9.30919 19.2236 9.39258C19.2236 9.39258 19.2236 9.39289 19.2239 9.39298C19.6117 10.3307 19.8194 11.3274 19.8194 12.3855C19.8194 13.3777 19.6322 14.393 19.227 15.37C19.2259 15.3726 19.2248 15.3751 19.2238 15.3776C19.2229 15.3797 19.2221 15.3819 19.2212 15.3841C18.4307 17.2808 16.8893 18.821 14.9913 19.6098C14.0407 20.0046 13.0338 20.2052 11.9994 20.2052C10.9645 20.2052 9.95808 20.0046 9.00751 19.6098C7.10727 18.8201 5.56445 17.2772 4.77479 15.377C4.37996 14.4268 4.17939 13.4204 4.17939 12.3855C4.17939 11.3529 4.37888 10.3491 4.77159 9.40078C4.77276 9.39812 4.77393 9.39546 4.77506 9.39276C4.77614 9.39019 4.77713 9.38762 4.77812 9.38505C5.56878 7.48891 7.10993 5.94925 9.00747 5.16071C9.95804 4.76538 10.9645 4.56531 11.9994 4.56531C13.0342 4.56531 14.0407 4.76543 14.9912 5.16071C16.4786 5.7791 17.7708 6.87395 18.6295 8.24324C18.7299 8.40334 18.9379 8.44859 19.0955 8.35006C19.2525 8.25063 19.3018 8.04357 19.2023 7.88401C18.7363 7.14118 18.1608 6.47637 17.4914 5.90801C16.9038 5.40888 16.2552 4.99435 15.5601 4.67227L16.4664 2.48424C18.871 3.57336 20.8112 5.51354 21.9003 7.91818ZM15.8421 2.22467L14.9358 4.41265C13.9964 4.06505 13.0103 3.88914 11.9994 3.88914C10.9885 3.88914 10.0024 4.0651 9.06295 4.41265L8.15669 2.22467C9.35186 1.77115 10.6472 1.52276 11.9994 1.52276C13.3517 1.52276 14.6469 1.77115 15.8421 2.22467ZM7.53239 2.48419L8.4387 4.67227C7.53023 5.09342 6.70361 5.67156 5.99489 6.38027C5.29938 7.07587 4.71629 7.89781 4.28643 8.82444L2.09845 7.91813C3.18762 5.51354 5.12779 3.57336 7.53239 2.48419ZM1.83893 8.54238L4.02682 9.44865C3.67927 10.3884 3.50331 11.3745 3.50331 12.3854C3.50331 13.3959 3.67927 14.3821 4.02686 15.3215L1.83893 16.2279C1.38541 15.0327 1.13702 13.7374 1.13702 12.3851C1.13702 11.0329 1.38541 9.73756 1.83893 8.54238ZM2.09845 16.8521L4.28652 15.9457C4.71277 16.8652 5.29334 17.688 5.99489 18.3896C6.69495 19.0896 7.51729 19.6708 8.4387 20.098L7.53239 22.286C5.12779 21.1969 3.18762 19.2567 2.09845 16.8521ZM8.15669 22.5456L9.06295 20.3577C10.0023 20.7053 10.988 20.8812 11.9985 20.8812H12.0003C13.0108 20.8812 13.9965 20.7053 14.9358 20.3577L15.8422 22.5456C14.647 22.9991 13.3517 23.2475 11.9994 23.2475C10.6472 23.2475 9.35186 22.9991 8.15669 22.5456ZM16.4664 22.2861L15.5601 20.0981C16.4794 19.6719 17.3024 19.0912 18.0039 18.3896C18.7009 17.6925 19.2833 16.871 19.7122 15.9458L21.9003 16.8521C20.8112 19.2567 18.871 21.1969 16.4664 22.2861Z" fill="#1C2042"/>
</g>
<defs>
<clipPath id="clip0_3986_2808">
<rect width="24" height="24" fill="white"/>
</clipPath>
</defs>
</svg>
