<svg width="11" height="11" viewBox="0 0 11 11" fill="none" xmlns="http://www.w3.org/2000/svg">
<path d="M5.49767 4.44109L9.61293 8.55617C9.72597 8.66948 9.87711 8.73181 10.0383 8.73181C10.1995 8.73181 10.3506 8.66948 10.4638 8.55617L10.8242 8.19558C10.9376 8.08245 11 7.93122 11 7.77007C11 7.60892 10.9376 7.45787 10.8242 7.34465L5.92462 2.445C5.81104 2.33133 5.65928 2.26909 5.49794 2.26953C5.33589 2.26909 5.18431 2.33124 5.07064 2.445L0.175822 7.34009C0.0624237 7.45331 0 7.60435 0 7.7656C0 7.92675 0.0624237 8.0778 0.175822 8.19111L0.536228 8.55161C0.770805 8.78618 1.15268 8.78618 1.38716 8.55161L5.49767 4.44109Z" fill="#FFD169"/>
</svg>
